<?xml version="1.0" standalone="no"?>
<!DOCTYPE svg PUBLIC "-//W3C//DTD SVG 1.1//EN" "http://www.w3.org/Graphics/SVG/1.1/DTD/svg11.dtd" >
<svg>
<metadata>
Created by FontForge 20090914 at Sat Jul 13 02:41:42 2019
 By www-data
Copyright (C) 1995; Type Market Ltd. Moscow, 119136, Box 20; phone:(095)2071022; Created by A.Kustov
</metadata>
<defs>
<font id="Europe-Italic" horiz-adv-x="562" >
  <font-face 
    font-family="Europe"
    font-weight="400"
    font-style="italic"
    font-stretch="normal"
    units-per-em="1000"
    panose-1="4 0 5 0 0 0 0 0 0 0"
    ascent="763"
    descent="-237"
    x-height="524"
    cap-height="749"
    bbox="-93 -237 1243 946"
    underline-thickness="50"
    underline-position="-50"
    slope="-10"
    stemh="65"
    stemv="82"
    unicode-range="U+0020-U+2122"
  />
<missing-glyph horiz-adv-x="500" 
 />
    <glyph glyph-name=".notdef" horiz-adv-x="500" 
 />
    <glyph glyph-name="space" unicode=" " horiz-adv-x="238" 
 />
    <glyph glyph-name="space" unicode="&#xa0;" horiz-adv-x="238" 
 />
    <glyph glyph-name="exclam" unicode="!" horiz-adv-x="268" 
d="M125 101l-18 -101h-89l18 101h89zM243 749l-112 -543h-65l80 543h97z" />
    <glyph glyph-name="quotedbl" unicode="&#x22;" horiz-adv-x="370" 
d="M108 450h-65l38 300h94zM275 450h-67l39 300h94z" />
    <glyph glyph-name="numbersign" unicode="#" horiz-adv-x="679" 
d="M417 260l-71 -222h-46l70 222h-132l-69 -222h-49l71 222h-140l15 45h139l41 126h-140l15 46h139l66 205h47l-65 -205h132l64 205h47l-65 -205h144l-15 -46h-143l-41 -126h143l-14 -45h-143zM425 431h-133l-40 -126h132z" />
    <glyph glyph-name="dollar" unicode="$" horiz-adv-x="687" 
d="M323 416l46 264h-37c-100 0 -184 -14 -184 -176c0 -78 49 -88 139 -88h36zM373 344l-50 -286h29c117 0 199 40 199 197c0 84 -56 89 -160 89h-18zM311 -10l-14 -74h-63l14 74c-149 0 -256 3 -256 140c0 19 3 46 12 94h83c-6 -33 -9 -59 -9 -80c0 -78 42 -86 154 -86h28
l50 286c-132 0 -249 7 -249 140c0 219 126 265 297 265h23l13 69h63l-13 -69c145 0 234 -9 234 -137c0 -21 -2 -45 -7 -73h-83c5 26 7 47 7 65c0 55 -26 76 -107 76h-56l-46 -264c147 0 249 -5 249 -139c0 -197 -84 -287 -300 -287h-24z" />
    <glyph glyph-name="percent" unicode="%" horiz-adv-x="912" 
d="M259 750c108 0 143 -21 143 -84c0 -19 -2 -34 -23 -153c-19 -107 -50 -140 -186 -140c-109 0 -145 21 -145 85c0 19 2 33 23 151c20 111 53 141 188 141zM252 709c-71 0 -115 -6 -129 -87c-25 -139 -26 -148 -26 -155c0 -51 41 -53 103 -53c72 0 113 2 128 84
c23 128 25 140 25 153c0 54 -39 58 -101 58zM796 750l-640 -750h-51l637 750h54zM709 377c108 0 143 -21 143 -84c0 -19 -2 -34 -23 -153c-19 -107 -50 -140 -186 -140c-109 0 -145 21 -145 85c0 19 2 33 23 151c20 111 53 141 188 141zM702 336c-71 0 -115 -6 -129 -87
c-25 -139 -26 -148 -26 -155c0 -51 41 -53 103 -53c72 0 113 2 128 84c23 128 25 140 25 153c0 54 -39 58 -101 58z" />
    <glyph glyph-name="ampersand" unicode="&#x26;" horiz-adv-x="786" 
d="M572 330h83l-11 -65c-6 -32 -15 -67 -27 -100l112 -107l-56 -58l-94 91c-61 -94 -169 -96 -263 -96c-180 0 -284 3 -284 155c0 185 70 266 195 280c-33 33 -46 53 -46 90c0 165 80 221 257 221c123 0 191 -16 191 -120c0 -18 -2 -46 -14 -103h-83c9 49 11 70 11 86
c0 62 -36 64 -130 64c-74 0 -145 -6 -145 -118c0 -36 15 -56 45 -86l239 -236c3 11 16 77 20 102zM272 384c-108 -22 -130 -42 -148 -145c-6 -35 -10 -63 -10 -86c0 -69 35 -88 145 -88h73c64 0 158 5 190 77z" />
    <glyph glyph-name="quotesingle" unicode="'" horiz-adv-x="205" 
d="M110 450h-68l39 299h95z" />
    <glyph glyph-name="parenleft" unicode="(" horiz-adv-x="311" 
d="M335 756l-12 -70c-108 0 -126 -74 -144 -177l-73 -414c-4 -23 -8 -51 -8 -67c0 -44 17 -76 79 -76h16l-12 -70h-23c-112 0 -142 56 -142 134c0 33 5 71 12 110l62 351c29 163 54 279 245 279z" />
    <glyph glyph-name="parenright" unicode=")" horiz-adv-x="311" 
d="M139 756c129 0 164 -53 164 -138c0 -40 -8 -88 -17 -141l-62 -351c-23 -132 -56 -244 -216 -244h-23l12 70h16c92 0 109 70 122 142l74 416c6 34 11 64 11 90c0 53 -20 86 -93 86z" />
    <glyph glyph-name="asterisk" unicode="*" horiz-adv-x="687" 
d="M548 588l-163 -55l70 -132l-51 -32l-69 136l-124 -136l-38 32l119 132l-141 58l27 53l144 -56l29 162h55l-29 -162l163 57z" />
    <glyph glyph-name="plus" unicode="+" 
d="M30 405h230l38 217h48l-38 -217h232l-8 -47h-232l-38 -217h-48l38 217h-230z" />
    <glyph glyph-name="comma" unicode="," horiz-adv-x="227" 
d="M178 101l-20 -110c-11 -62 -29 -103 -95 -103c-8 0 -17 1 -22 2l8 42c37 2 52 16 58 53l3 15h-39l18 101h89z" />
    <glyph glyph-name="period" unicode="." horiz-adv-x="223" 
d="M165 101l-18 -101h-89l18 101h89z" />
    <glyph glyph-name="slash" unicode="/" horiz-adv-x="726" 
d="M724 749l-731 -859h-61l729 859h63z" />
    <glyph glyph-name="zero" unicode="0" horiz-adv-x="687" 
d="M661 377c-55 -310 -160 -385 -385 -385c-179 0 -266 48 -266 224c0 45 6 98 17 161c54 310 158 380 384 380c180 0 266 -45 266 -221c0 -44 -5 -97 -16 -159zM578 377c11 65 17 116 17 157c0 121 -54 150 -197 150c-193 0 -244 -52 -288 -306c-11 -65 -18 -116 -18 -158
c0 -122 55 -155 197 -155c190 0 244 61 289 312z" />
    <glyph glyph-name="one" unicode="1" horiz-adv-x="687" 
d="M508 749l-132 -749h-80l121 685l-229 -211l-45 49l247 226h118z" />
    <glyph glyph-name="two" unicode="2" horiz-adv-x="689" 
d="M547 73l-13 -73h-540l25 140c31 175 142 198 303 212c172 15 200 46 221 167c4 20 5 37 5 53c0 79 -46 112 -158 112c-155 0 -211 -46 -229 -190h-80c36 200 109 263 324 263c154 0 228 -46 228 -167c0 -22 -2 -45 -7 -72c-34 -189 -103 -219 -294 -239
c-183 -19 -216 -43 -234 -147l-11 -59h460z" />
    <glyph glyph-name="three" unicode="3" horiz-adv-x="689" 
d="M269 348l13 73h96c126 0 149 16 170 137c2 11 3 22 3 32c0 60 -40 94 -163 94c-146 0 -190 -47 -210 -164h-80c30 174 111 237 302 237c168 0 236 -53 236 -151c0 -15 -2 -31 -5 -48c-21 -122 -65 -160 -152 -173c84 -11 112 -47 112 -110c0 -18 -2 -37 -6 -59
c-31 -177 -102 -224 -318 -224c-142 0 -243 22 -243 152c0 26 2 45 13 101h80c-11 -60 -13 -76 -13 -89c0 -68 43 -91 175 -91c175 0 202 31 223 151c3 16 4 29 4 42c0 67 -41 90 -133 90h-104z" />
    <glyph glyph-name="four" unicode="4" horiz-adv-x="689" 
d="M598 749l-89 -505h113l-13 -73h-113l-30 -171h-80l30 171h-422l18 101l460 477h126zM429 244l79 450l-431 -450h352z" />
    <glyph glyph-name="five" unicode="5" horiz-adv-x="687" 
d="M85 370l67 378h504l-13 -73h-424l-40 -224c56 60 139 62 207 62c150 0 221 -43 221 -162c0 -22 -2 -46 -7 -74c-38 -216 -101 -285 -320 -285c-153 0 -246 10 -246 145c0 22 3 48 8 78h83c-5 -27 -8 -49 -8 -68c0 -66 39 -82 176 -82c130 0 191 29 215 163
c7 41 12 74 12 102c0 82 -38 110 -146 110c-159 0 -186 -17 -209 -70h-80z" />
    <glyph glyph-name="six" unicode="6" horiz-adv-x="689" 
d="M363 458c152 0 228 -38 228 -160c0 -227 -117 -306 -324 -306c-166 0 -240 22 -240 161c0 43 4 76 32 233c54 306 111 371 357 371c137 0 235 -10 235 -128c0 -15 -2 -31 -9 -73h-83c6 32 7 45 7 56c0 62 -44 72 -163 72c-162 0 -213 -35 -246 -216l-15 -82
c29 47 63 72 221 72zM280 65c143 0 227 43 227 216c0 81 -49 104 -171 104c-159 0 -228 -49 -228 -215c0 -84 52 -105 172 -105z" />
    <glyph glyph-name="seven" unicode="7" horiz-adv-x="689" 
d="M666 749l-19 -106l-476 -643h-100l514 676h-478l13 73h546z" />
    <glyph glyph-name="eight" unicode="8" horiz-adv-x="689" 
d="M333 351c-162 0 -202 -35 -221 -144c-4 -19 -6 -36 -6 -51c0 -69 44 -91 178 -91c162 0 202 31 222 145c3 18 5 34 5 48c0 69 -43 93 -178 93zM391 683c-154 0 -191 -35 -207 -127c-4 -21 -6 -40 -6 -55c0 -62 37 -79 167 -79c179 0 215 59 215 174c0 60 -38 87 -169 87z
M190 390c-74 15 -96 51 -96 103c0 196 95 263 313 263c171 0 238 -36 238 -138c0 -107 -27 -204 -155 -228c78 -14 105 -57 105 -121c0 -17 -2 -35 -5 -54c-29 -164 -86 -223 -320 -223c-187 0 -248 39 -248 144c0 24 3 52 9 83c15 89 47 150 159 171z" />
    <glyph glyph-name="nine" unicode="9" horiz-adv-x="689" 
d="M309 289c-152 0 -228 38 -228 159c0 22 2 46 7 73c32 181 124 235 317 235c161 0 242 -24 242 -160c0 -27 -3 -58 -34 -234c-54 -306 -109 -370 -356 -370c-136 0 -236 10 -236 128c0 15 2 33 9 72h83c-6 -26 -7 -45 -7 -55c0 -63 44 -72 164 -72c163 0 214 34 245 214
l15 83c-29 -47 -63 -73 -221 -73zM392 683c-154 0 -227 -60 -227 -216c0 -82 49 -105 171 -105c159 0 228 56 228 216c0 84 -52 105 -172 105z" />
    <glyph glyph-name="colon" unicode=":" horiz-adv-x="223" 
d="M128 101l-18 -101h-89l18 101h89zM202 522l-18 -101h-89l18 101h89z" />
    <glyph glyph-name="semicolon" unicode=";" horiz-adv-x="224" 
d="M138 101l-20 -110c-11 -62 -29 -103 -95 -103c-8 0 -17 1 -22 2l8 42c37 2 52 16 58 53l3 15h-39l18 101h89zM212 523l-18 -101h-89l18 101h89z" />
    <glyph glyph-name="less" unicode="&#x3c;" horiz-adv-x="561" 
d="M570 644l-15 -88l-425 -180l361 -181l-15 -87l-447 230l14 76z" />
    <glyph glyph-name="equal" unicode="=" 
d="M45 486h511l-8 -47h-511zM17 325h511l-8 -47h-511z" />
    <glyph glyph-name="greater" unicode="&#x3e;" 
d="M-9 108l15 87l425 181l-361 181l15 87l447 -231l-14 -75z" />
    <glyph glyph-name="question" unicode="?" horiz-adv-x="584" 
d="M273 216h-89c19 111 50 147 153 179c125 39 146 97 146 198c0 69 -41 88 -140 88c-131 0 -152 -19 -177 -165h-80c32 186 77 238 266 238c136 0 215 -19 215 -135c0 -179 -97 -261 -199 -290c-72 -21 -87 -49 -95 -113zM252 101l-18 -101h-89l18 101h89z" />
    <glyph glyph-name="at" unicode="@" horiz-adv-x="707" 
d="M495 531h55l-45 -258c-2 -12 -4 -25 -4 -37c0 -22 7 -39 34 -39c33 0 58 10 89 187c10 55 16 97 16 129c0 95 -56 101 -250 101c-232 0 -251 -25 -294 -266c-12 -67 -19 -120 -19 -160c0 -110 55 -129 222 -129c160 0 201 9 213 37l34 -28c-35 -47 -69 -56 -238 -56
c-185 0 -276 7 -276 177c0 42 6 95 17 160c49 277 112 312 350 312c216 0 285 -29 285 -153c0 -33 -5 -73 -13 -121c-37 -212 -81 -237 -141 -237c-41 0 -80 17 -80 61c-33 -54 -93 -61 -146 -61c-94 0 -120 42 -120 106c0 26 4 54 10 86c21 119 53 189 185 189
c46 0 90 -6 108 -49zM382 484c-88 0 -107 -19 -129 -142c-6 -36 -10 -63 -10 -83c0 -53 23 -62 75 -62c106 0 125 34 141 126c10 58 12 80 12 92c0 48 -24 69 -89 69z" />
    <glyph glyph-name="A" unicode="A" horiz-adv-x="720" 
d="M-40 0l405 749h121l147 -749h-89l-29 154h-378l-87 -154h-90zM501 227l-85 460l-246 -460h331z" />
    <glyph glyph-name="B" unicode="B" horiz-adv-x="691" 
d="M148 345l-48 -272h231c128 0 178 15 199 138c4 25 7 45 7 62c0 65 -36 72 -123 72h-266zM206 676l-45 -258h238c118 0 175 47 175 187c0 53 -27 71 -99 71h-269zM4 0l132 749h361c108 0 162 -35 162 -128c0 -78 -19 -193 -129 -228c69 -20 92 -52 92 -106
c0 -20 -3 -43 -8 -70c-23 -134 -84 -217 -228 -217h-382z" />
    <glyph glyph-name="C" unicode="C" horiz-adv-x="671" 
d="M543 250h81c-34 -194 -107 -258 -342 -258c-175 0 -251 37 -251 201c0 48 6 107 19 179c55 316 140 385 367 385c199 0 249 -52 249 -166c0 -24 -3 -59 -6 -79h-81c1 20 2 37 2 53c0 89 -29 119 -177 119c-177 0 -224 -64 -269 -300c-12 -63 -20 -123 -20 -172
c0 -120 53 -147 180 -147c177 0 222 37 248 185z" />
    <glyph glyph-name="D" unicode="D" horiz-adv-x="732" 
d="M4 0l132 749h346c175 0 225 -85 225 -212c0 -49 -8 -104 -18 -163c-36 -205 -95 -374 -317 -374h-368zM206 676l-106 -603h244c146 0 220 65 262 301c9 52 14 95 14 132c0 130 -58 170 -173 170h-241z" />
    <glyph glyph-name="E" unicode="E" horiz-adv-x="596" 
d="M161 418h381l-13 -73h-381l-48 -272h397l-13 -73h-480l132 749h482l-13 -73h-399z" />
    <glyph glyph-name="F" unicode="F" horiz-adv-x="545" 
d="M161 418h365l-13 -73h-365l-61 -345h-83l132 749h457l-13 -73h-374z" />
    <glyph glyph-name="G" unicode="G" horiz-adv-x="695" 
d="M692 529h-83c2 18 3 35 3 49c0 83 -39 106 -199 106c-177 0 -235 -54 -280 -312c-11 -64 -18 -115 -18 -156c0 -123 56 -151 189 -151c182 0 238 55 269 256h-240l13 73h323c-49 -353 -140 -402 -377 -402c-190 0 -261 51 -261 205c0 48 7 106 19 175
c51 292 132 385 376 385c223 0 270 -50 270 -162c0 -13 -2 -49 -4 -66z" />
    <glyph glyph-name="H" unicode="H" horiz-adv-x="744" 
d="M161 418h438l58 331h83l-132 -749h-83l61 345h-438l-61 -345h-83l132 749h83z" />
    <glyph glyph-name="I" unicode="I" horiz-adv-x="223" 
d="M219 749l-132 -749h-83l132 749h83z" />
    <glyph glyph-name="J" unicode="J" horiz-adv-x="561" 
d="M475 749h83l-96 -543c-22 -128 -84 -214 -268 -214c-154 0 -202 44 -202 136c0 23 3 57 20 145h83c-15 -80 -17 -102 -17 -120c0 -66 34 -88 129 -88c104 0 155 45 174 154z" />
    <glyph glyph-name="K" unicode="K" horiz-adv-x="696" 
d="M219 749l-58 -331h74l365 331h111l-408 -362l316 -387h-115l-282 345h-74l-61 -345h-83l132 749h83z" />
    <glyph glyph-name="L" unicode="L" horiz-adv-x="553" 
d="M219 749l-119 -676h379l-13 -73h-462l132 749h83z" />
    <glyph glyph-name="M" unicode="M" horiz-adv-x="946" 
d="M273 749l153 -642l379 642h137l-132 -749h-83l122 689l-405 -689h-72l-165 682l-120 -682h-83l132 749h137z" />
    <glyph glyph-name="N" unicode="N" horiz-adv-x="777" 
d="M136 749h132l302 -684l120 684h83l-132 -749h-132l-303 677l-119 -677h-83z" />
    <glyph glyph-name="O" unicode="O" horiz-adv-x="729" 
d="M50 374c56 319 131 383 384 383c191 0 265 -37 265 -195c0 -50 -8 -111 -21 -188c-56 -318 -128 -382 -381 -382c-192 0 -267 37 -267 197c0 49 7 110 20 185zM133 374c-13 -74 -21 -131 -21 -174c0 -112 52 -135 199 -135c204 0 237 45 284 309c14 76 22 134 22 178
c0 109 -51 132 -197 132c-207 0 -240 -44 -287 -310z" />
    <glyph glyph-name="P" unicode="P" horiz-adv-x="666" 
d="M139 293l-52 -293h-83l132 749h357c119 0 168 -43 168 -140c0 -22 -2 -46 -7 -73c-33 -182 -101 -243 -292 -243h-223zM206 676l-54 -310h199c134 0 194 25 218 159c4 26 7 48 7 67c0 59 -26 84 -108 84h-262z" />
    <glyph glyph-name="Q" unicode="Q" horiz-adv-x="743" 
d="M676 91l-44 -57l-49 38c-75 -74 -160 -80 -291 -80c-193 0 -268 37 -268 197c0 49 7 110 20 185c56 319 132 383 382 383c195 0 271 -36 271 -196c0 -102 -44 -340 -76 -427zM364 326l191 -143c17 61 58 291 58 364c0 115 -53 137 -201 137c-204 0 -238 -44 -285 -310
c-13 -74 -21 -131 -21 -175c0 -111 51 -134 197 -134c118 0 176 6 219 51l-207 151z" />
    <glyph glyph-name="R" unicode="R" horiz-adv-x="699" 
d="M140 303l-53 -303h-83l132 749h356c124 0 186 -40 186 -147c0 -100 -39 -250 -169 -269c69 -5 96 -42 96 -100c0 -19 -4 -51 -38 -233h-83c31 172 34 197 34 209c0 69 -44 94 -125 94h-253zM206 676l-53 -300h245c174 0 194 125 194 205c0 70 -36 95 -113 95h-273z" />
    <glyph glyph-name="S" unicode="S" horiz-adv-x="629" 
d="M10 231h83c-6 -34 -10 -60 -10 -82c0 -74 43 -84 182 -84c190 0 226 76 226 190c0 62 -40 79 -176 84c-156 6 -248 31 -248 152c0 192 107 266 320 266c145 0 235 -19 235 -147c0 -20 -3 -42 -7 -68h-83c4 21 6 39 6 54c0 66 -39 88 -164 88c-175 0 -222 -45 -222 -170
c0 -69 52 -87 217 -96c132 -7 207 -34 207 -144c0 -183 -69 -282 -324 -282c-154 0 -254 12 -254 141c0 19 2 39 12 98z" />
    <glyph glyph-name="T" unicode="T" horiz-adv-x="601" 
d="M393 676l-119 -676h-83l119 676h-242l13 73h567l-13 -73h-242z" />
    <glyph glyph-name="U" unicode="U" horiz-adv-x="736" 
d="M142 749h83l-93 -525c-5 -27 -8 -50 -8 -69c0 -76 46 -90 190 -90c181 0 217 22 241 159l93 525h83l-93 -527c-39 -220 -144 -230 -337 -230c-159 0 -260 7 -260 150c0 23 3 49 8 80z" />
    <glyph glyph-name="V" unicode="V" horiz-adv-x="643" 
d="M618 749h91l-397 -749h-122l-135 749h90l119 -682z" />
    <glyph glyph-name="W" unicode="W" horiz-adv-x="1151" 
d="M1202 749l-369 -749h-128l-77 674l-321 -674h-125l-99 749h88l84 -684l323 684h125l80 -684l330 684h89z" />
    <glyph glyph-name="X" unicode="X" horiz-adv-x="686" 
d="M202 749l156 -320l268 320h100l-310 -361l200 -388h-102l-171 344l-293 -344h-102l336 388l-182 361h100z" />
    <glyph glyph-name="Y" unicode="Y" horiz-adv-x="673" 
d="M86 749h93l164 -358l289 358h95l-360 -436l-55 -313h-83l55 313z" />
    <glyph glyph-name="Z" unicode="Z" horiz-adv-x="637" 
d="M667 749l-14 -80l-578 -596h483l-13 -73h-584l13 74l575 602h-454l13 73h559z" />
    <glyph glyph-name="bracketleft" unicode="[" horiz-adv-x="311" 
d="M137 749h192l-11 -65h-109l-129 -731h109l-12 -65h-192z" />
    <glyph glyph-name="backslash" unicode="\" horiz-adv-x="726" 
d="M155 749h63l425 -859h-61z" />
    <glyph glyph-name="bracketright" unicode="]" horiz-adv-x="311" 
d="M174 -112h-192l12 65h109l129 731h-109l11 65h192z" />
    <glyph glyph-name="asciicircum" unicode="^" 
d="M89 420h-82l254 330h99l138 -330h-83l-115 271z" />
    <glyph glyph-name="underscore" unicode="_" 
d="M5 -81h562l-10 -57h-562z" />
    <glyph glyph-name="grave" unicode="`" 
d="M241 742l128 -113l-34 -41l-143 99z" />
    <glyph glyph-name="a" unicode="a" horiz-adv-x="565" 
d="M245 258c-92 0 -141 -25 -141 -129c0 -58 35 -72 107 -72c113 0 194 9 194 136c0 58 -42 65 -160 65zM164 382h-80c25 144 116 152 235 152c125 0 202 -14 202 -124c0 -17 -2 -38 -6 -60l-61 -350h-75l15 68c-49 -66 -85 -76 -190 -76c-112 0 -182 18 -182 116
c0 160 82 211 233 211c124 0 150 -18 164 -61c19 103 21 126 21 144c0 62 -36 67 -136 67c-93 0 -128 -6 -140 -87z" />
    <glyph glyph-name="b" unicode="b" horiz-adv-x="566" 
d="M307 469c-142 0 -155 -61 -181 -206c-8 -45 -14 -83 -14 -113c0 -64 28 -93 125 -93c130 0 160 63 185 206c7 40 12 74 12 102c0 72 -31 104 -127 104zM212 749l-50 -285c42 47 80 70 183 70c133 0 170 -61 170 -154c0 -33 -6 -79 -13 -120c-29 -167 -73 -268 -261 -268
c-94 0 -125 15 -154 75l-7 -67h-80l132 749h80z" />
    <glyph glyph-name="c" unicode="c" horiz-adv-x="537" 
d="M406 192h77c-37 -164 -102 -200 -261 -200c-136 0 -189 39 -189 154c0 33 4 72 12 117c36 206 98 271 271 271c118 0 194 -23 194 -120c0 -14 -1 -28 -7 -59h-77c3 17 5 32 5 45c0 50 -29 69 -127 69c-117 0 -148 -31 -178 -203c-8 -44 -12 -80 -12 -108
c0 -81 35 -101 120 -101c123 0 146 26 172 135z" />
    <glyph glyph-name="d" unicode="d" horiz-adv-x="566" 
d="M287 469c-142 0 -155 -61 -181 -206c-8 -45 -14 -83 -14 -113c0 -64 28 -93 125 -93c130 0 160 63 185 206c7 40 12 74 12 102c0 72 -31 104 -127 104zM438 464l50 285h80l-132 -749h-78l15 67c-51 -60 -88 -75 -182 -75c-138 0 -179 54 -179 148c0 35 6 75 14 120
c27 158 68 274 252 274c103 0 134 -23 160 -70z" />
    <glyph glyph-name="e" unicode="e" horiz-adv-x="551" 
d="M498 246h-376c-7 -39 -11 -71 -11 -96c0 -75 35 -93 127 -93c126 0 151 14 165 105h80c-26 -150 -109 -170 -257 -170c-138 0 -193 36 -193 154c0 33 4 72 12 119c37 207 115 269 276 269c132 0 194 -42 194 -159c0 -25 -3 -54 -17 -129zM133 311h296c4 24 7 45 7 63
c0 71 -37 95 -127 95c-114 0 -155 -40 -176 -158z" />
    <glyph glyph-name="f" unicode="f" horiz-adv-x="295" 
d="M328 525l-12 -65h-137l-81 -460h-80l81 460h-80l12 65h80l13 78c20 119 82 156 196 156c17 0 35 -2 45 -4l-11 -65c-19 3 -29 4 -51 4c-59 0 -87 -27 -97 -85l-15 -84h137z" />
    <glyph glyph-name="g" unicode="g" 
d="M326 469c-142 0 -155 -61 -181 -206c-8 -45 -14 -83 -14 -113c0 -64 28 -93 125 -93c130 0 160 63 185 206c7 40 12 74 12 102c0 72 -31 104 -127 104zM479 456l8 68h76l-98 -558c-29 -162 -91 -201 -265 -201c-120 0 -181 15 -181 111c0 18 2 38 6 62h74
c-2 -15 -3 -27 -3 -38c0 -61 31 -70 106 -70c114 0 163 10 185 129l19 105c-44 -65 -119 -72 -185 -72c-130 0 -170 56 -170 150c0 29 4 63 10 99c29 166 62 293 261 293c69 0 128 -16 157 -78z" />
    <glyph glyph-name="h" unicode="h" horiz-adv-x="575" 
d="M211 749l-50 -284c46 64 111 68 179 68c120 0 171 -28 171 -121c0 -21 -2 -45 -7 -72l-60 -340h-80l63 355c3 17 4 31 4 43c0 59 -35 70 -110 70c-132 0 -167 -45 -189 -169l-53 -299h-80l132 749h80z" />
    <glyph glyph-name="i" unicode="i" horiz-adv-x="210" 
d="M211 749l-15 -86h-80l15 86h80zM171 524l-92 -524h-80l92 524h80z" />
    <glyph glyph-name="j" unicode="j" horiz-adv-x="210" 
d="M229 750l-15 -86h-80l15 86h80zM109 524h80l-101 -573c-14 -81 -46 -155 -144 -155c-12 0 -25 1 -37 5l9 55c4 -2 8 -3 11 -3c63 0 72 46 81 98z" />
    <glyph glyph-name="k" unicode="k" horiz-adv-x="506" 
d="M211 749l-77 -438h31l226 213h96l-265 -241l214 -283h-104l-179 246h-31l-43 -246h-80l132 749h80z" />
    <glyph glyph-name="l" unicode="l" horiz-adv-x="210" 
d="M211 749l-132 -749h-80l132 749h80z" />
    <glyph glyph-name="m" unicode="m" horiz-adv-x="912" 
d="M190 524l-12 -70c48 59 112 80 182 80c64 0 140 -17 151 -89c50 67 121 89 195 89c112 0 161 -35 161 -124c0 -19 -2 -40 -6 -63l-61 -347h-80l62 352c3 18 5 33 5 46c0 53 -28 71 -102 71c-126 0 -164 -60 -175 -122l-61 -347h-80l61 346c4 21 6 38 6 53
c0 53 -28 70 -107 70c-117 0 -158 -53 -178 -168l-53 -301h-80l92 524h80z" />
    <glyph glyph-name="n" unicode="n" horiz-adv-x="576" 
d="M191 524l-10 -59c46 64 111 68 179 68c120 0 171 -28 171 -121c0 -21 -2 -45 -7 -72l-60 -340h-80l63 355c3 17 4 31 4 43c0 59 -35 70 -110 70c-132 0 -167 -45 -189 -169l-53 -299h-80l92 524h80z" />
    <glyph glyph-name="o" unicode="o" 
d="M511 262c-38 -218 -105 -272 -279 -272c-136 0 -194 34 -194 154c0 32 4 71 12 117c38 218 105 272 278 272c137 0 196 -33 196 -153c0 -33 -5 -71 -13 -118zM431 262c8 43 12 79 12 106c0 82 -37 100 -127 100c-119 0 -155 -32 -186 -206c-8 -44 -12 -78 -12 -106
c0 -83 37 -101 126 -101c119 0 156 30 187 207z" />
    <glyph glyph-name="p" unicode="p" horiz-adv-x="566" 
d="M345 469c-142 0 -155 -61 -181 -206c-8 -45 -14 -83 -14 -113c0 -64 28 -93 125 -93c130 0 160 63 185 206c7 40 12 74 12 102c0 72 -31 104 -127 104zM128 60l-50 -285h-80l132 749h80l-10 -60c47 52 104 70 174 70c139 0 180 -55 180 -150c0 -34 -5 -73 -13 -117
c-28 -158 -71 -275 -255 -275c-67 0 -130 8 -158 68z" />
    <glyph glyph-name="q" unicode="q" horiz-adv-x="566" 
d="M325 469c-142 0 -155 -61 -181 -206c-8 -45 -14 -83 -14 -113c0 -64 28 -93 125 -93c130 0 160 63 185 206c7 40 12 74 12 102c0 72 -31 104 -127 104zM486 524h80l-132 -749h-80l50 285c-48 -60 -117 -68 -184 -68c-133 0 -169 59 -169 151c0 36 5 76 13 120
c30 168 73 271 262 271c70 0 121 -18 150 -69z" />
    <glyph glyph-name="r" unicode="r" horiz-adv-x="444" 
d="M190 524l-9 -52c38 43 90 65 150 65c90 0 130 -36 130 -110c0 -14 -1 -35 -10 -77h-80c9 45 10 59 10 67c0 42 -25 55 -77 55c-81 0 -130 -41 -145 -123l-61 -349h-80l92 524h80z" />
    <glyph glyph-name="s" unicode="s" horiz-adv-x="537" 
d="M33 167h80c-3 -16 -4 -29 -4 -41c0 -58 36 -69 124 -69c130 0 162 29 162 115c0 31 -26 56 -127 64c-104 8 -199 20 -199 116c0 144 95 182 236 182c111 0 203 -11 203 -99c0 -14 -1 -24 -6 -45h-80c2 9 3 17 3 24c0 39 -27 55 -124 55c-123 0 -151 -24 -151 -107
c0 -41 28 -52 138 -57c113 -5 188 -31 188 -122c0 -157 -96 -191 -251 -191c-131 0 -198 18 -198 117c0 17 2 36 6 58z" />
    <glyph glyph-name="t" unicode="t" horiz-adv-x="388" 
d="M393 525l-11 -65h-202l-57 -321c-3 -15 -4 -28 -4 -38c0 -32 15 -44 63 -44c63 0 81 14 97 128h75c-26 -148 -50 -193 -184 -193c-95 0 -133 23 -133 92c0 16 2 34 6 55l57 321h-69l11 65h69l22 126h80l-22 -126h202z" />
    <glyph glyph-name="u" unicode="u" horiz-adv-x="566" 
d="M112 524h80l-61 -347c-3 -19 -6 -42 -6 -51c0 -53 28 -70 104 -70c124 0 165 42 185 159l54 309h80l-92 -524h-74l12 69c-57 -67 -115 -78 -194 -78c-107 0 -158 29 -158 114c0 15 2 33 5 52z" />
    <glyph glyph-name="v" unicode="v" horiz-adv-x="476" 
d="M429 524h85l-267 -524h-110l-83 524h85l62 -465z" />
    <glyph glyph-name="w" unicode="w" horiz-adv-x="763" 
d="M803 524l-239 -524h-114l-31 469l-195 -469h-116l-49 524h79l37 -471l198 471h114l31 -471l203 471h82z" />
    <glyph glyph-name="x" unicode="x" horiz-adv-x="476" 
d="M488 524l-211 -250l139 -274h-96l-98 212l-172 -212h-96l235 274l-123 250h92l85 -192l153 192h92z" />
    <glyph glyph-name="y" unicode="y" horiz-adv-x="469" 
d="M440 524h81l-266 -594c-59 -133 -109 -167 -188 -167c-13 0 -32 2 -44 6l11 64c11 -3 20 -5 29 -5c60 0 78 21 146 172h-34l-99 524h80l82 -466z" />
    <glyph glyph-name="z" unicode="z" horiz-adv-x="453" 
d="M96 524h379l-12 -71l-382 -388h313l-11 -65h-406l13 74l381 385h-286z" />
    <glyph glyph-name="braceleft" unicode="{" horiz-adv-x="561" 
d="M148 244l12 67c54 14 75 53 84 104l34 196c22 126 93 152 217 152l-13 -73c-77 0 -112 -28 -126 -108l-32 -180c-10 -58 -24 -98 -83 -126c33 -20 43 -49 43 -83c0 -53 -40 -216 -40 -263c0 -50 26 -67 92 -67l-13 -73c-110 0 -167 11 -167 103c0 49 43 251 43 284
c0 32 -13 55 -51 67z" />
    <glyph glyph-name="bar" unicode="|" horiz-adv-x="561" 
d="M240 -186h-83l165 935h83z" />
    <glyph glyph-name="braceright" unicode="}" horiz-adv-x="561" 
d="M414 308l-12 -66c-54 -14 -74 -53 -83 -104l-35 -196c-22 -124 -90 -152 -217 -152l13 73c79 4 112 28 126 108l32 180c10 57 24 98 82 126c-32 20 -42 48 -42 81c0 52 40 220 40 263c0 51 -27 69 -92 69l13 73c108 0 167 -6 167 -101c0 -57 -42 -239 -42 -284
c0 -33 12 -57 50 -70z" />
    <glyph glyph-name="asciitilde" unicode="~" horiz-adv-x="561" 
d="M43 293l-41 37c41 63 100 126 176 126c83 0 136 -82 223 -82c49 0 88 46 116 84l40 -37c-41 -62 -103 -125 -177 -125c-83 0 -133 78 -212 78c-55 0 -92 -36 -125 -81z" />
    <glyph glyph-name="currency" unicode="&#xa4;" horiz-adv-x="720" 
d="M166 543l45 38l41 -50c44 28 97 43 146 43c48 0 95 -14 128 -43l60 51l31 -36l-57 -49c15 -24 21 -53 21 -84c0 -64 -26 -137 -70 -181l41 -50l-44 -38l-42 50c-44 -29 -95 -43 -148 -43c-50 0 -94 19 -126 43l-60 -51l-31 36l57 49c-13 23 -21 53 -21 87
c0 64 27 131 70 178zM383 501c-91 0 -163 -76 -163 -167c0 -72 49 -110 114 -110c79 0 165 67 165 165c0 65 -49 112 -116 112z" />
    <glyph glyph-name="brokenbar" unicode="&#xa6;" horiz-adv-x="556" 
d="M331 419h-80l59 330h80zM249 -50h-80l58 330h80z" />
    <glyph glyph-name="section" unicode="&#xa7;" horiz-adv-x="687" 
d="M248 412c-63 0 -88 -79 -88 -134c0 -41 21 -52 69 -66l161 -47c18 -5 33 -10 51 -10c61 0 90 69 90 130c0 35 -26 52 -77 67l-154 47c-28 9 -43 13 -52 13zM637 559h-73c4 23 6 42 6 58c0 62 -36 71 -150 71c-146 0 -163 -17 -177 -100c-3 -15 -4 -27 -4 -38
c0 -42 24 -55 86 -75l158 -52c81 -26 121 -40 121 -108c0 -74 -23 -155 -99 -186c40 -19 51 -47 51 -83c0 -20 -4 -42 -8 -67c-27 -153 -84 -191 -286 -191c-151 0 -230 8 -230 129c0 22 3 47 8 77h75c-8 -39 -9 -57 -9 -67c0 -61 44 -69 168 -69c134 0 187 24 202 107
c3 19 5 35 5 47c0 46 -25 55 -88 72l-219 61c-64 18 -90 48 -90 107c0 82 25 170 114 186c-29 21 -39 52 -39 87c0 17 3 36 6 54c28 157 90 178 268 178c142 0 212 -7 212 -119c0 -22 -3 -48 -8 -79z" />
    <glyph glyph-name="copyright" unicode="&#xa9;" horiz-adv-x="879" 
d="M640 332c-30 -112 -127 -185 -238 -185c-114 0 -178 76 -178 179c0 146 112 279 260 279c93 0 171 -52 171 -154h-47c0 68 -66 105 -134 105c-117 0 -192 -117 -192 -224c0 -77 43 -136 129 -136s157 51 183 136h46zM508 761c189 0 324 -139 324 -320
c0 -241 -224 -455 -460 -455c-190 0 -325 140 -325 322c0 241 228 453 461 453zM501 717c-209 0 -406 -190 -406 -403c0 -160 117 -284 285 -284c209 0 404 192 404 404c0 159 -115 283 -283 283z" />
    <glyph glyph-name="guillemotleft" unicode="&#xab;" horiz-adv-x="503" 
d="M242 575l52 -35l-163 -251l88 -253l-63 -36l-99 289zM427 575l51 -35l-163 -251l87 -253l-61 -36l-101 289z" />
    <glyph glyph-name="logicalnot" unicode="&#xac;" horiz-adv-x="561" 
d="M454 155l36 203h-440l8 47h487l-44 -250h-47z" />
    <glyph glyph-name="registered" unicode="&#xae;" horiz-adv-x="879" 
d="M320 332l-32 -182h-51l80 455h217c78 0 112 -23 112 -85c0 -78 -21 -152 -102 -167c44 -4 62 -28 62 -64c0 -8 -3 -32 -22 -139h-49c18 105 20 117 20 127c0 42 -29 55 -79 55h-156zM360 560l-33 -185h149c83 0 119 35 119 135c0 33 -15 50 -67 50h-168zM508 761
c189 0 324 -139 324 -320c0 -240 -226 -455 -460 -455c-190 0 -325 140 -325 322c0 241 228 453 461 453zM501 717c-209 0 -406 -190 -406 -403c0 -160 117 -284 285 -284c209 0 404 192 404 404c0 159 -115 283 -283 283z" />
    <glyph glyph-name="degree" unicode="&#xb0;" 
d="M309 746c78 0 133 -59 133 -133c0 -99 -95 -186 -189 -186c-75 0 -134 57 -134 131c0 100 93 188 190 188zM302 705c-75 0 -140 -73 -140 -138c0 -49 35 -99 97 -99c64 0 141 57 141 140c0 44 -34 97 -98 97z" />
    <glyph glyph-name="plusminus" unicode="&#xb1;" 
d="M38 548h230l39 217h47l-39 -217h232l-8 -47h-232l-38 -213h-47l38 213h-230zM-16 238h509l-9 -47h-509z" />
    <glyph glyph-name="mu" unicode="&#xb5;" horiz-adv-x="588" 
d="M129 537h80l-59 -335c-2 -9 -3 -19 -3 -28c0 -69 50 -117 123 -117c102 0 169 97 185 186l52 294h80l-95 -537h-80l19 105c-38 -69 -100 -113 -174 -113c-66 0 -106 22 -131 76l-45 -255h-80z" />
    <glyph glyph-name="mu" unicode="&#x3bc;" horiz-adv-x="588" 
d="M129 537h80l-59 -335c-2 -9 -3 -19 -3 -28c0 -69 50 -117 123 -117c102 0 169 97 185 186l52 294h80l-95 -537h-80l19 105c-38 -69 -100 -113 -174 -113c-66 0 -106 22 -131 76l-45 -255h-80z" />
    <glyph glyph-name="paragraph" unicode="&#xb6;" horiz-adv-x="689" 
d="M543 -210h-76l156 889h-89l-156 -889h-76l88 504h-118c-184 0 -232 42 -232 130c0 27 5 57 11 92c32 184 71 233 302 233h359zM403 364l55 315h-169c-109 0 -134 -25 -157 -156c-4 -24 -6 -44 -6 -62c0 -75 41 -97 152 -97h125z" />
    <glyph glyph-name="periodcentered" unicode="&#xb7;" horiz-adv-x="687" 
d="M397 324l-18 -101h-89l18 101h89z" />
    <glyph glyph-name="periodcentered" unicode="&#x2219;" horiz-adv-x="687" 
d="M397 324l-18 -101h-89l18 101h89z" />
    <glyph glyph-name="guillemotright" unicode="&#xbb;" horiz-adv-x="503" 
d="M363 575l83 -286l-202 -289l-48 36l175 253l-73 251zM178 575l85 -286l-204 -289l-46 36l174 253l-73 251z" />
    <glyph glyph-name="afii10023" unicode="&#x401;" horiz-adv-x="596" 
d="M149 418h381l-13 -73h-381l-48 -272h397l-13 -73h-480l132 749h482l-13 -73h-399zM499 882l-15 -86h-80l15 86h80zM348 882l-15 -86h-80l15 86h80z" />
    <glyph glyph-name="afii10051" unicode="&#x402;" horiz-adv-x="803" 
d="M393 676l-45 -258h196c136 0 193 -34 193 -134c0 -20 -2 -44 -7 -70c-27 -151 -100 -214 -258 -214h-117l13 73h111c119 0 150 41 168 141c4 21 6 38 6 53c0 67 -40 78 -137 78h-181l-61 -345h-83l119 676h-242l13 73h567l-13 -73h-242z" />
    <glyph glyph-name="afii10052" unicode="&#x403;" horiz-adv-x="545" 
d="M120 749h463l-13 -73h-380l-119 -676h-83zM528 946l-165 -150h-68l128 150h105z" />
    <glyph glyph-name="afii10053" unicode="&#x404;" horiz-adv-x="682" 
d="M575 528c1 16 2 31 2 44c0 88 -30 112 -177 112c-166 0 -225 -44 -264 -266h383l-13 -73h-383c-12 -66 -18 -116 -18 -155c0 -106 49 -125 183 -125c188 0 220 30 244 165h83c-32 -178 -89 -238 -340 -238c-183 0 -252 36 -252 186c0 51 8 114 22 194
c56 319 129 385 365 385c187 0 250 -35 250 -163c0 -20 -1 -42 -4 -66h-81z" />
    <glyph glyph-name="afii10054" unicode="&#x405;" horiz-adv-x="629" 
d="M10 231h83c-6 -34 -10 -60 -10 -82c0 -74 43 -84 182 -84c190 0 226 76 226 190c0 62 -40 79 -176 84c-156 6 -248 31 -248 152c0 192 107 266 320 266c145 0 235 -19 235 -147c0 -20 -3 -42 -7 -68h-83c4 21 6 39 6 54c0 66 -39 88 -164 88c-175 0 -222 -45 -222 -170
c0 -69 52 -87 217 -96c132 -7 207 -34 207 -144c0 -183 -69 -282 -324 -282c-154 0 -254 12 -254 141c0 19 2 39 12 98z" />
    <glyph glyph-name="afii10055" unicode="&#x406;" horiz-adv-x="223" 
d="M219 749l-132 -749h-83l132 749h83z" />
    <glyph glyph-name="afii10056" unicode="&#x407;" horiz-adv-x="243" 
d="M158 882l-15 -86h-80l15 86h80zM321 882l-15 -86h-80l15 86h80zM217 749l-132 -749h-83l132 749h83z" />
    <glyph glyph-name="afii10057" unicode="&#x408;" horiz-adv-x="561" 
d="M475 749h83l-96 -543c-22 -128 -84 -214 -268 -214c-154 0 -202 44 -202 136c0 23 2 48 20 145h83c-15 -79 -17 -102 -17 -120c0 -66 34 -88 129 -88c104 0 155 45 174 154z" />
    <glyph glyph-name="afii10058" unicode="&#x409;" horiz-adv-x="1071" 
d="M194 749h439l-58 -331h227c136 0 193 -34 193 -134c0 -188 -84 -284 -265 -284h-312l119 676h-273l-80 -457c-25 -142 -74 -219 -180 -219h-53l13 73h20c64 0 94 19 115 137zM562 345l-48 -272h223c73 0 174 11 174 194c0 67 -40 78 -137 78h-212z" />
    <glyph glyph-name="afii10059" unicode="&#x40a;" horiz-adv-x="1096" 
d="M161 418h356l58 331h83l-58 -331h227c136 0 193 -34 193 -134c0 -195 -92 -284 -265 -284h-312l61 345h-356l-61 -345h-83l132 749h83zM587 345l-48 -272h223c129 0 174 62 174 194c0 67 -40 78 -137 78h-212z" />
    <glyph glyph-name="afii10060" unicode="&#x40b;" horiz-adv-x="749" 
d="M393 676l-45 -258h122c136 0 193 -34 193 -134c0 -35 -5 -65 -45 -284h-83c43 239 44 246 44 267c0 67 -40 78 -137 78h-107l-61 -345h-83l119 676h-242l13 73h567l-13 -73h-242z" />
    <glyph glyph-name="afii10061" unicode="&#x40c;" horiz-adv-x="696" 
d="M202 749l-59 -331h74l366 331h111l-408 -362l316 -387h-115l-283 345h-74l-60 -345h-83l132 749h83zM551 946l-165 -150h-68l128 150h105z" />
    <glyph glyph-name="afii10062" unicode="&#x40e;" horiz-adv-x="660" 
d="M74 749h90l140 -519l302 519h86l-373 -632c-46 -79 -99 -117 -161 -117h-78l13 73h49c52 0 74 16 101 70zM519 882h57c-16 -92 -57 -115 -175 -115c-93 0 -135 17 -135 80c0 10 1 22 3 35h57c0 -55 21 -58 86 -58c59 0 97 3 107 58z" />
    <glyph glyph-name="afii10145" unicode="&#x40f;" horiz-adv-x="744" 
d="M234 749l-119 -676h438l119 676h83l-132 -749h-262l-30 -172h-80l30 172h-262l132 749h83z" />
    <glyph glyph-name="afii10017" unicode="&#x410;" horiz-adv-x="720" 
d="M-40 0l405 749h121l147 -749h-89l-29 154h-378l-87 -154h-90zM501 227l-85 460l-246 -460h331z" />
    <glyph glyph-name="afii10018" unicode="&#x411;" horiz-adv-x="683" 
d="M139 749h495l-13 -73h-412l-45 -258h250c136 0 193 -34 193 -134c0 -20 -2 -44 -7 -70c-27 -152 -100 -214 -258 -214h-335zM151 345l-48 -272h246c119 0 150 41 168 141c4 21 6 38 6 53c0 67 -40 78 -137 78h-235z" />
    <glyph glyph-name="afii10019" unicode="&#x412;" horiz-adv-x="691" 
d="M148 345l-48 -272h231c128 0 178 15 199 138c4 25 7 45 7 62c0 65 -36 72 -123 72h-266zM206 676l-45 -258h238c118 0 175 47 175 187c0 53 -27 71 -99 71h-269zM4 0l132 749h361c108 0 162 -35 162 -128c0 -50 -11 -193 -129 -228c69 -20 92 -52 92 -106
c0 -20 -3 -43 -8 -70c-23 -134 -84 -217 -228 -217h-382z" />
    <glyph glyph-name="afii10020" unicode="&#x413;" horiz-adv-x="545" 
d="M137 749h463l-13 -73h-380l-119 -676h-83z" />
    <glyph glyph-name="afii10021" unicode="&#x414;" horiz-adv-x="743" 
d="M40 73v1c72 86 107 173 127 289l68 386h509l-119 -676h54l-43 -245h-76l30 172h-533l-30 -172h-76l43 245h46zM648 676h-343l-53 -303c-27 -151 -58 -221 -118 -300h408z" />
    <glyph glyph-name="afii10022" unicode="&#x415;" horiz-adv-x="596" 
d="M161 418h381l-13 -73h-381l-48 -272h397l-13 -73h-480l132 749h482l-13 -73h-399z" />
    <glyph glyph-name="afii10024" unicode="&#x416;" horiz-adv-x="1122" 
d="M161 749h104l195 -331h73l58 331h83l-58 -331h72l312 331h103l-346 -364l268 -385h-120l-230 345h-72l-61 -345h-83l61 345h-73l-352 -345h-120l404 385z" />
    <glyph glyph-name="afii10025" unicode="&#x417;" horiz-adv-x="683" 
d="M223 345l13 73h169c158 0 174 98 174 174c0 68 -49 92 -173 92c-154 0 -194 -33 -223 -152h-83c41 192 131 225 319 225c172 0 247 -38 247 -140c0 -116 -47 -213 -161 -231c82 -12 111 -49 111 -117c0 -167 -76 -277 -332 -277c-194 0 -263 33 -263 140c0 20 3 46 12 92
h83c-8 -36 -10 -61 -10 -76c0 -71 45 -83 191 -83c185 0 235 71 235 183c0 64 -40 97 -135 97h-174z" />
    <glyph glyph-name="afii10026" unicode="&#x418;" horiz-adv-x="782" 
d="M219 749l-122 -692l548 692h133l-132 -749h-83l121 685l-548 -685h-132l132 749h83z" />
    <glyph glyph-name="afii10027" unicode="&#x419;" horiz-adv-x="782" 
d="M207 749l-122 -691l548 691h133l-132 -749h-83l121 686l-548 -686h-132l132 749h83zM553 882h57c-16 -92 -57 -115 -175 -115c-93 0 -135 17 -135 80c0 10 1 22 3 35h57c0 -55 21 -58 86 -58c59 0 97 3 107 58z" />
    <glyph glyph-name="afii10028" unicode="&#x41a;" horiz-adv-x="696" 
d="M219 749l-58 -331h74l365 331h111l-408 -362l316 -387h-115l-282 345h-74l-61 -345h-83l132 749h83z" />
    <glyph glyph-name="afii10029" unicode="&#x41b;" horiz-adv-x="726" 
d="M194 749h528l-132 -749h-83l119 676h-362l-80 -457c-25 -142 -74 -219 -180 -219h-53l13 73h20c64 0 94 19 115 137z" />
    <glyph glyph-name="afii10030" unicode="&#x41c;" horiz-adv-x="946" 
d="M273 749l153 -642l379 642h137l-132 -749h-83l122 689l-405 -689h-72l-165 682l-120 -682h-83l132 749h137z" />
    <glyph glyph-name="afii10031" unicode="&#x41d;" horiz-adv-x="744" 
d="M161 418h438l58 331h83l-132 -749h-83l61 345h-438l-61 -345h-83l132 749h83z" />
    <glyph glyph-name="afii10032" unicode="&#x41e;" horiz-adv-x="729" 
d="M50 374c56 319 131 383 384 383c191 0 265 -37 265 -195c0 -50 -8 -111 -21 -188c-56 -318 -128 -382 -381 -382c-192 0 -267 37 -267 197c0 49 7 110 20 185zM133 374c-13 -74 -21 -131 -21 -174c0 -112 52 -135 199 -135c204 0 237 45 284 309c14 76 22 134 22 178
c0 109 -51 132 -197 132c-207 0 -240 -44 -287 -310z" />
    <glyph glyph-name="afii10033" unicode="&#x41f;" horiz-adv-x="744" 
d="M136 749h604l-132 -749h-83l119 676h-438l-119 -676h-83z" />
    <glyph glyph-name="afii10034" unicode="&#x420;" horiz-adv-x="666" 
d="M139 293l-52 -293h-83l132 749h357c119 0 168 -43 168 -140c0 -22 -2 -46 -7 -73c-33 -182 -101 -243 -292 -243h-223zM206 676l-54 -310h199c134 0 194 25 218 159c4 26 7 48 7 67c0 59 -26 84 -108 84h-262z" />
    <glyph glyph-name="afii10035" unicode="&#x421;" horiz-adv-x="671" 
d="M543 250h81c-34 -194 -107 -258 -342 -258c-175 0 -251 37 -251 201c0 48 6 107 19 179c55 316 140 385 367 385c199 0 249 -52 249 -166c0 -24 -3 -50 -6 -79h-81c1 20 2 37 2 53c0 89 -29 119 -177 119c-170 0 -226 -54 -271 -312c-12 -66 -18 -119 -18 -160
c0 -120 53 -147 180 -147c177 0 222 37 248 185z" />
    <glyph glyph-name="afii10036" unicode="&#x422;" horiz-adv-x="601" 
d="M393 676l-119 -676h-83l119 676h-242l13 73h567l-13 -73h-242z" />
    <glyph glyph-name="afii10037" unicode="&#x423;" horiz-adv-x="660" 
d="M86 749h90l140 -519l302 519h86l-373 -632c-46 -79 -99 -117 -161 -117h-78l13 73h49c52 0 74 16 101 70z" />
    <glyph glyph-name="afii10038" unicode="&#x424;" horiz-adv-x="872" 
d="M459 749h83l-16 -89h95c141 0 214 -51 214 -184c0 -27 -3 -57 -9 -91c-36 -203 -131 -274 -300 -274h-96l-20 -111h-83l20 111h-93c-142 0 -216 50 -216 183c0 27 3 57 9 91c36 204 132 275 303 275h93zM514 589l-72 -407h87c130 0 189 62 214 203c5 27 7 51 7 72
c0 91 -45 132 -150 132h-86zM359 182l72 407h-87c-135 0 -189 -63 -214 -204c-5 -29 -8 -54 -8 -76c0 -87 42 -127 150 -127h87z" />
    <glyph glyph-name="afii10039" unicode="&#x425;" horiz-adv-x="686" 
d="M202 749l156 -320l268 320h100l-310 -361l200 -388h-102l-171 344l-293 -344h-102l336 388l-182 361h100z" />
    <glyph glyph-name="afii10040" unicode="&#x426;" horiz-adv-x="752" 
d="M234 749l-119 -676h438l119 676h83l-119 -676h56l-43 -245h-80l30 172h-580l132 749h83z" />
    <glyph glyph-name="afii10041" unicode="&#x427;" horiz-adv-x="694" 
d="M126 749h83c-35 -191 -39 -227 -39 -247c0 -88 60 -93 171 -93c58 0 152 2 209 14l57 326h83l-132 -749h-83l62 352c-65 -14 -164 -16 -229 -16c-163 0 -223 32 -223 143c0 33 4 67 41 270z" />
    <glyph glyph-name="afii10042" unicode="&#x428;" horiz-adv-x="1153" 
d="M219 749l-119 -676h382l119 676h83l-119 -676h382l119 676h83l-132 -749h-1013l132 749h83z" />
    <glyph glyph-name="afii10043" unicode="&#x429;" horiz-adv-x="1173" 
d="M234 749l-119 -676h382l119 676h83l-119 -676h382l119 676h83l-119 -676h56l-43 -245h-80l30 172h-989l132 749h83z" />
    <glyph glyph-name="afii10044" unicode="&#x42a;" horiz-adv-x="740" 
d="M66 749h219l-58 -331h250c136 0 193 -34 193 -134c0 -20 -2 -44 -7 -70c-27 -152 -100 -214 -258 -214h-335l119 676h-136zM214 345l-48 -272h246c119 0 150 41 168 141c4 21 6 38 6 53c0 67 -40 78 -137 78h-235z" />
    <glyph glyph-name="afii10045" unicode="&#x42b;" horiz-adv-x="899" 
d="M219 749l-58 -331h250c136 0 193 -34 193 -134c0 -20 -2 -44 -7 -70c-27 -152 -100 -214 -258 -214h-335l132 749h83zM148 345l-48 -272h246c119 0 150 41 168 141c4 21 6 38 6 53c0 67 -40 78 -137 78h-235zM895 749l-132 -749h-83l132 749h83z" />
    <glyph glyph-name="afii10046" unicode="&#x42c;" horiz-adv-x="680" 
d="M219 749l-58 -331h250c136 0 193 -34 193 -134c0 -20 -2 -44 -7 -70c-27 -152 -100 -214 -258 -214h-335l132 749h83zM148 345l-48 -272h246c119 0 150 41 168 141c4 21 6 38 6 53c0 67 -40 78 -137 78h-235z" />
    <glyph glyph-name="afii10047" unicode="&#x42d;" horiz-adv-x="681" 
d="M164 528h-83c43 182 132 229 328 229c175 0 247 -43 247 -203c0 -49 -6 -109 -19 -181c-54 -307 -137 -381 -363 -381c-189 0 -264 43 -264 162c0 23 3 48 8 76h83c-4 -22 -6 -40 -6 -57c0 -87 55 -108 192 -108c186 0 225 73 262 280h-341l13 73h341c8 45 12 83 12 114
c0 123 -59 152 -178 152c-156 0 -196 -31 -232 -156z" />
    <glyph glyph-name="afii10048" unicode="&#x42e;" horiz-adv-x="953" 
d="M219 749l-58 -331h159c51 290 145 339 354 339c162 0 243 -26 243 -197c0 -49 -7 -110 -20 -185c-59 -337 -150 -383 -358 -383c-166 0 -249 29 -249 195c0 43 6 95 17 158h-159l-61 -345h-83l132 749h83zM552 65c145 0 213 31 262 310c12 66 18 118 18 159
c0 133 -61 150 -171 150c-163 0 -216 -29 -266 -309c-13 -71 -19 -126 -19 -169c0 -123 55 -141 176 -141z" />
    <glyph glyph-name="afii10049" unicode="&#x42f;" horiz-adv-x="694" 
d="M528 300h-231l-221 -300h-101l232 310c-78 14 -131 71 -131 187c0 168 115 252 282 252h332l-132 -749h-83zM541 373l53 303h-266c-132 0 -170 -104 -170 -178c0 -80 54 -125 157 -125h226z" />
    <glyph glyph-name="afii10065" unicode="&#x430;" horiz-adv-x="565" 
d="M245 258c-92 0 -141 -25 -141 -129c0 -58 35 -72 107 -72c113 0 194 9 194 136c0 58 -42 65 -160 65zM164 382h-80c25 144 116 152 235 152c125 0 202 -14 202 -124c0 -17 -2 -38 -6 -60l-61 -350h-75l15 68c-49 -66 -85 -76 -190 -76c-112 0 -182 18 -182 116
c0 160 82 211 233 211c124 0 150 -18 164 -61c19 103 21 126 21 144c0 62 -36 67 -136 67c-93 0 -128 -6 -140 -87z" />
    <glyph glyph-name="afii10066" unicode="&#x431;" horiz-adv-x="568" 
d="M133 432c38 55 88 82 173 82c148 0 199 -46 199 -153c0 -29 -3 -63 -10 -101c-32 -179 -84 -268 -280 -268c-148 0 -195 51 -195 153c0 33 5 71 13 115l28 162c31 178 121 261 257 261c126 0 139 4 146 43h67c-16 -88 -70 -105 -195 -105c-102 0 -175 -31 -203 -189z
M295 449c-118 0 -155 -38 -182 -190c-7 -39 -11 -71 -11 -98c0 -75 32 -104 127 -104c127 0 159 52 186 203c6 37 10 67 10 91c0 77 -36 98 -130 98z" />
    <glyph glyph-name="afii10067" unicode="&#x432;" horiz-adv-x="559" 
d="M142 246l-32 -181h185c57 0 112 25 112 115c0 51 -34 66 -80 66h-185zM180 460l-26 -149h183c71 0 101 23 101 98c0 41 -26 51 -75 51h-183zM19 0l92 525h265c82 0 144 -19 144 -100c0 -64 -31 -128 -119 -144c65 -16 86 -54 86 -98c0 -27 -6 -183 -189 -183h-279z" />
    <glyph glyph-name="afii10068" unicode="&#x433;" horiz-adv-x="434" 
d="M111 524h353l-11 -65h-273l-81 -459h-80z" />
    <glyph glyph-name="afii10069" unicode="&#x434;" horiz-adv-x="559" 
d="M45 65c51 65 71 117 90 222l41 237h371l-81 -459h55l-37 -214h-73l26 149h-378l-26 -149h-73l37 214h48zM386 65l70 394h-211l-33 -187c-15 -86 -41 -154 -83 -207h257z" />
    <glyph glyph-name="afii10070" unicode="&#x435;" horiz-adv-x="551" 
d="M498 246h-376c-7 -39 -11 -71 -11 -96c0 -75 35 -93 127 -93c126 0 153 14 165 105h80c-26 -150 -109 -170 -257 -170c-138 0 -193 36 -193 154c0 33 4 72 12 119c37 207 115 269 276 269c132 0 194 -42 194 -159c0 -25 -3 -54 -17 -129zM133 311h296c4 24 7 45 7 63
c0 71 -37 95 -127 95c-114 0 -155 -40 -176 -158z" />
    <glyph glyph-name="afii10072" unicode="&#x436;" horiz-adv-x="747" 
d="M381 525h80l-37 -214h31l202 214h85l-234 -243l184 -282h-94l-155 246h-31l-43 -246h-80l43 246h-32l-241 -246h-94l284 282l-151 243h86l129 -214h31z" />
    <glyph glyph-name="afii10073" unicode="&#x437;" horiz-adv-x="543" 
d="M169 381h-80c19 130 106 153 232 153c137 0 188 -36 188 -107c0 -59 -31 -137 -116 -154c62 -10 83 -46 83 -89c0 -153 -107 -192 -246 -192c-150 0 -202 28 -202 110c0 17 2 36 6 57h80c-3 -19 -6 -34 -6 -47c0 -46 29 -55 126 -55c134 0 160 32 160 121
c0 42 -22 68 -76 68h-118l11 65h118c50 0 98 18 98 100c0 35 -23 58 -113 58c-94 0 -134 -3 -145 -88z" />
    <glyph glyph-name="afii10074" unicode="&#x438;" horiz-adv-x="577" 
d="M191 524l-75 -429l344 429h98l-92 -524h-80l75 426l-342 -426h-100l92 524h80z" />
    <glyph glyph-name="afii10075" unicode="&#x439;" horiz-adv-x="577" 
d="M179 524l-76 -428l344 428h98l-92 -524h-80l76 427l-343 -427h-99l92 524h80zM416 665h48c-14 -78 -49 -98 -135 -98c-72 0 -103 15 -103 65c0 10 1 20 3 33h49c-2 -6 -3 -11 -3 -16c0 -22 12 -34 63 -34c48 0 70 6 78 50z" />
    <glyph glyph-name="afii10076" unicode="&#x43a;" horiz-adv-x="506" 
d="M191 524l-37 -213h31l226 213h96l-265 -241l214 -283h-104l-179 246h-31l-43 -246h-80l92 524h80z" />
    <glyph glyph-name="afii10077" unicode="&#x43b;" horiz-adv-x="550" 
d="M147 524h384l-92 -524h-80l81 459h-224l-55 -308c-15 -85 -54 -151 -152 -151h-39l11 65h12c57 0 75 11 89 88z" />
    <glyph glyph-name="afii10078" unicode="&#x43c;" horiz-adv-x="732" 
d="M335 91l250 433h128l-92 -524h-80l80 455l-267 -455h-70l-105 456l-80 -456h-80l92 524h126z" />
    <glyph glyph-name="afii10079" unicode="&#x43d;" horiz-adv-x="565" 
d="M191 524l-37 -213h275l37 213h80l-92 -524h-80l43 246h-275l-43 -246h-80l92 524h80z" />
    <glyph glyph-name="afii10080" unicode="&#x43e;" 
d="M511 262c-38 -218 -105 -272 -279 -272c-136 0 -194 34 -194 154c0 32 4 71 12 117c38 218 105 272 278 272c137 0 196 -33 196 -153c0 -33 -5 -71 -13 -118zM431 262c8 43 12 79 12 106c0 82 -37 100 -127 100c-119 0 -155 -32 -186 -206c-8 -44 -12 -78 -12 -106
c0 -83 37 -101 126 -101c119 0 156 30 187 207z" />
    <glyph glyph-name="afii10081" unicode="&#x43f;" horiz-adv-x="565" 
d="M111 524h435l-92 -524h-80l81 459h-275l-81 -459h-80z" />
    <glyph glyph-name="afii10082" unicode="&#x440;" horiz-adv-x="566" 
d="M345 469c-142 0 -155 -61 -181 -206c-8 -45 -14 -83 -14 -113c0 -64 28 -93 125 -93c130 0 160 63 185 206c7 40 12 74 12 102c0 72 -31 104 -127 104zM128 60l-50 -285h-80l132 749h80l-10 -60c47 52 104 70 174 70c139 0 180 -55 180 -150c0 -34 -5 -73 -13 -117
c-28 -158 -71 -275 -255 -275c-67 0 -130 8 -158 68z" />
    <glyph glyph-name="afii10083" unicode="&#x441;" horiz-adv-x="537" 
d="M406 192h77c-37 -164 -102 -200 -261 -200c-136 0 -189 39 -189 154c0 33 4 72 12 117c36 206 98 271 271 271c118 0 194 -23 194 -120c0 -13 -1 -27 -7 -59h-77c3 17 5 32 5 45c0 50 -29 69 -127 69c-117 0 -148 -31 -178 -203c-8 -44 -12 -80 -12 -108
c0 -81 35 -101 120 -101c123 0 146 26 172 135z" />
    <glyph glyph-name="afii10084" unicode="&#x442;" horiz-adv-x="458" 
d="M142 0l81 459h-181l11 65h442l-11 -65h-181l-81 -459h-80z" />
    <glyph glyph-name="afii10085" unicode="&#x443;" horiz-adv-x="469" 
d="M440 524h81l-266 -594c-59 -133 -109 -167 -188 -167c-13 0 -32 2 -44 6l11 64c11 -3 18 -5 29 -5c60 0 78 21 146 172h-34l-99 524h80l82 -466z" />
    <glyph glyph-name="afii10086" unicode="&#x444;" horiz-adv-x="820" 
d="M284 -225l54 307c-34 -58 -101 -90 -167 -90c-107 0 -138 50 -138 130c0 41 8 89 18 143c29 168 57 269 222 269c61 0 109 -24 131 -82l52 298h80l-52 -298c44 58 96 82 162 82c109 0 141 -48 141 -132c0 -38 -7 -85 -16 -137c-29 -160 -59 -273 -221 -273
c-64 0 -118 32 -131 92l-55 -309h-80zM287 469c-99 0 -132 -66 -154 -189c-8 -48 -13 -86 -13 -118c0 -73 26 -105 95 -105c98 0 131 67 158 223c6 33 9 62 9 86c0 70 -27 103 -95 103zM604 469c-92 0 -128 -60 -151 -189c-8 -48 -13 -88 -13 -120c0 -71 24 -103 92 -103
c99 0 134 68 162 226c6 32 9 60 9 84c0 67 -26 102 -99 102z" />
    <glyph glyph-name="afii10087" unicode="&#x445;" horiz-adv-x="476" 
d="M488 524l-211 -250l139 -274h-96l-98 212l-172 -212h-96l235 274l-123 250h92l85 -192l153 192h92z" />
    <glyph glyph-name="afii10088" unicode="&#x446;" horiz-adv-x="581" 
d="M204 524l-81 -459h274l81 459h80l-81 -459h55l-37 -214h-73l26 149h-416l92 524h80z" />
    <glyph glyph-name="afii10089" unicode="&#x447;" horiz-adv-x="538" 
d="M111 524h80c-26 -144 -28 -162 -28 -174c0 -47 27 -58 100 -58c71 0 107 8 140 24l36 208h80l-92 -524h-80l48 271h-4c-31 -35 -58 -44 -162 -44c-96 0 -148 27 -148 105c0 19 5 54 30 192z" />
    <glyph glyph-name="afii10090" unicode="&#x448;" horiz-adv-x="864" 
d="M191 524l-81 -459h247l81 459h80l-81 -459h247l81 459h80l-92 -524h-734l92 524h80z" />
    <glyph glyph-name="afii10091" unicode="&#x449;" horiz-adv-x="868" 
d="M204 524l-81 -459h247l81 459h80l-81 -459h247l81 459h80l-81 -459h55l-37 -214h-73l26 149h-716l92 524h80z" />
    <glyph glyph-name="afii10092" unicode="&#x44a;" horiz-adv-x="573" 
d="M46 524h184l-37 -213h191c74 0 129 -26 129 -111c0 -142 -91 -200 -183 -200h-272l81 459h-104zM181 246l-32 -181h165c80 0 118 30 118 124c0 46 -27 57 -90 57h-161z" />
    <glyph glyph-name="afii10093" unicode="&#x44b;" horiz-adv-x="734" 
d="M191 524l-37 -213h191c74 0 129 -26 129 -111c0 -142 -91 -200 -183 -200h-272l92 524h80zM142 246l-32 -181h165c80 0 118 30 118 124c0 46 -27 57 -90 57h-161zM715 524l-92 -524h-80l92 524h80z" />
    <glyph glyph-name="afii10094" unicode="&#x44c;" horiz-adv-x="534" 
d="M191 524l-37 -213h191c74 0 129 -26 129 -111c0 -142 -91 -200 -183 -200h-272l92 524h80zM142 246l-32 -181h165c80 0 118 30 118 124c0 46 -27 57 -90 57h-161z" />
    <glyph glyph-name="afii10095" unicode="&#x44d;" horiz-adv-x="552" 
d="M161 380h-75c37 127 113 154 246 154c131 0 188 -36 188 -153c0 -33 -5 -71 -13 -117c-37 -212 -92 -272 -272 -272c-156 0 -199 48 -199 131c0 12 1 27 2 37h79c-1 -10 -2 -21 -2 -26c0 -61 29 -77 132 -77c123 0 150 34 177 189h-225l11 65h225c5 27 8 51 8 70
c0 66 -33 88 -123 88c-107 0 -135 -16 -159 -89z" />
    <glyph glyph-name="afii10096" unicode="&#x44e;" horiz-adv-x="776" 
d="M154 311h124c40 173 98 222 269 222c135 0 197 -28 197 -152c0 -33 -5 -72 -13 -119c-40 -227 -109 -272 -280 -272c-136 0 -196 30 -196 148c0 30 3 65 11 108h-124l-43 -246h-80l92 524h80zM651 262c8 44 12 78 12 106c0 79 -35 100 -128 100
c-123 0 -155 -32 -186 -207c-8 -46 -13 -82 -13 -110c0 -79 36 -96 127 -96c125 0 157 30 188 207z" />
    <glyph glyph-name="afii10097" unicode="&#x44f;" horiz-adv-x="535" 
d="M381 211h-158l-141 -211h-90l153 221c-46 7 -85 48 -85 114c0 109 68 189 184 189h272l-92 -524h-80zM392 276l33 183h-166c-110 0 -120 -80 -120 -127c0 -45 27 -56 89 -56h164z" />
    <glyph glyph-name="afii10071" unicode="&#x451;" horiz-adv-x="551" 
d="M487 246h-376c-7 -40 -11 -72 -11 -97c0 -74 34 -92 126 -92c126 0 152 12 166 105h80c-27 -150 -109 -170 -257 -170c-137 0 -194 36 -194 154c0 33 5 72 13 119c36 207 114 269 275 269c132 0 194 -42 194 -159c0 -25 -3 -54 -16 -129zM122 311h296c4 24 6 44 6 62
c0 71 -36 96 -126 96c-114 0 -155 -40 -176 -158zM449 665l-15 -86h-80l15 86h80zM308 665l-15 -86h-80l15 86h80z" />
    <glyph glyph-name="afii10099" unicode="&#x452;" horiz-adv-x="575" 
d="M223 749l-12 -68h200l-10 -57h-200l-28 -159c46 64 111 68 179 68c120 0 171 -28 171 -121c0 -21 -2 -45 -7 -72l-34 -190c-38 -216 -96 -286 -281 -286l12 65c113 0 157 36 189 221l37 205c3 17 4 31 4 43c0 59 -35 70 -110 70c-132 0 -167 -45 -189 -169l-53 -299h-80
l110 624h-65l10 57h65l12 68h80z" />
    <glyph glyph-name="afii10100" unicode="&#x453;" horiz-adv-x="434" 
d="M96 524h353l-11 -65h-273l-81 -459h-80zM425 695l-141 -128h-68l109 128h100z" />
    <glyph glyph-name="afii10101" unicode="&#x454;" horiz-adv-x="537" 
d="M400 160h78c-28 -121 -78 -168 -256 -168c-138 0 -190 36 -190 149c0 34 4 75 13 124c38 212 103 269 271 269c121 0 192 -14 192 -125c0 -11 -1 -27 -2 -36h-75c0 83 -20 96 -127 96c-117 0 -149 -38 -171 -158h258l-11 -65h-258c-7 -41 -11 -74 -11 -100
c0 -71 32 -89 122 -89c116 0 145 21 167 103z" />
    <glyph glyph-name="afii10102" unicode="&#x455;" horiz-adv-x="537" 
d="M33 167h80c-3 -16 -4 -29 -4 -41c0 -58 36 -69 124 -69c130 0 162 29 162 115c0 31 -26 56 -127 64c-104 8 -199 20 -199 116c0 144 95 182 236 182c111 0 203 -11 203 -99c0 -14 -1 -24 -6 -45h-80c2 9 3 17 3 24c0 39 -27 55 -124 55c-123 0 -151 -24 -151 -107
c0 -41 28 -52 138 -57c113 -5 188 -31 188 -122c0 -157 -96 -191 -251 -191c-131 0 -198 18 -198 117c0 17 2 36 6 58z" />
    <glyph glyph-name="afii10103" unicode="&#x456;" horiz-adv-x="210" 
d="M211 749l-15 -86h-80l15 86h80zM171 524l-92 -524h-80l92 524h80z" />
    <glyph glyph-name="afii10104" unicode="&#x457;" horiz-adv-x="211" 
d="M273 665l-15 -86h-80l15 86h80zM132 665l-15 -86h-80l15 86h80zM176 524l-92 -524h-80l92 524h80z" />
    <glyph glyph-name="afii10105" unicode="&#x458;" horiz-adv-x="210" 
d="M229 750l-15 -86h-80l15 86h80zM109 524h80l-101 -573c-14 -81 -46 -155 -144 -155c-12 0 -25 1 -37 5l9 55c4 -2 8 -3 11 -3c63 0 72 46 81 98z" />
    <glyph glyph-name="afii10106" unicode="&#x459;" horiz-adv-x="817" 
d="M147 524h350l-37 -213h168c74 0 129 -26 129 -111c0 -142 -91 -200 -183 -200h-249l81 459h-190l-55 -308c-15 -86 -54 -151 -152 -151h-39l11 65h12c57 0 75 11 89 88zM448 246l-32 -181h142c80 0 118 30 118 124c0 46 -27 57 -90 57h-138z" />
    <glyph glyph-name="afii10107" unicode="&#x45a;" horiz-adv-x="817" 
d="M191 524l-37 -213h226l37 213h80l-37 -213h168c74 0 129 -26 129 -111c0 -142 -91 -200 -183 -200h-249l43 246h-226l-43 -246h-80l92 524h80zM448 246l-32 -181h142c80 0 118 30 118 124c0 46 -27 57 -90 57h-138z" />
    <glyph glyph-name="afii10108" unicode="&#x45b;" horiz-adv-x="575" 
d="M211 749l-12 -68h200l-10 -57h-200l-28 -159c46 64 111 68 179 68c120 0 171 -28 171 -121c0 -21 -2 -45 -7 -72l-60 -340h-80l63 355c3 17 4 31 4 43c0 59 -35 70 -110 70c-132 0 -167 -45 -189 -169l-53 -299h-80l110 624h-65l10 57h65l12 68h80z" />
    <glyph glyph-name="afii10109" unicode="&#x45c;" horiz-adv-x="506" 
d="M176 524l-37 -213h31l226 213h96l-265 -241l214 -283h-104l-179 246h-31l-43 -246h-80l92 524h80zM447 695l-141 -128h-68l109 128h100z" />
    <glyph glyph-name="afii10110" unicode="&#x45e;" horiz-adv-x="469" 
d="M428 524h81l-266 -594c-60 -133 -110 -167 -189 -167c-13 0 -31 2 -43 6l11 64c10 -3 18 -5 29 -5c60 0 78 21 145 172h-34l-98 524h80l81 -466zM390 665h48c-14 -78 -49 -98 -135 -98c-72 0 -103 15 -103 65c0 10 1 20 3 33h49c-2 -6 -3 -11 -3 -16c0 -22 12 -34 63 -34
c48 0 70 6 78 50z" />
    <glyph glyph-name="afii10193" unicode="&#x45f;" horiz-adv-x="565" 
d="M204 524l-81 -459h275l81 459h80l-92 -524h-181l-26 -149h-73l26 149h-181l92 524h80z" />
    <glyph glyph-name="afii10050" unicode="&#x490;" horiz-adv-x="545" 
d="M125 749h380l24 133h83l-37 -206h-380l-119 -676h-83z" />
    <glyph glyph-name="afii10098" unicode="&#x491;" horiz-adv-x="434" 
d="M103 524h288l16 92h65l-27 -157h-273l-81 -459h-80z" />
    <glyph glyph-name="endash" unicode="&#x2013;" horiz-adv-x="687" 
d="M48 405h599l-8 -47h-599z" />
    <glyph glyph-name="emdash" unicode="&#x2014;" horiz-adv-x="783" 
d="M4 405h783l-8 -47h-783z" />
    <glyph glyph-name="quoteleft" unicode="&#x2018;" horiz-adv-x="202" 
d="M29 538l20 109c10 61 29 103 95 103c8 0 17 -1 21 -2l-7 -42c-37 -2 -52 -16 -58 -53l-3 -14h38l-18 -101h-88z" />
    <glyph glyph-name="quoteright" unicode="&#x2019;" horiz-adv-x="196" 
d="M166 749l-20 -110c-11 -62 -29 -103 -95 -103c-8 0 -17 1 -22 2l8 42c37 2 52 16 58 53l3 15h-39l18 101h89z" />
    <glyph glyph-name="quotesinglbase" unicode="&#x201a;" horiz-adv-x="227" 
d="M178 101l-20 -110c-11 -62 -29 -103 -95 -103c-8 0 -17 1 -22 2l8 42c37 2 52 16 58 53l3 15h-39l18 101h89z" />
    <glyph glyph-name="quotedblleft" unicode="&#x201c;" horiz-adv-x="350" 
d="M186 538l20 109c10 61 30 103 96 103c7 0 17 -1 21 -2l-7 -42c-38 -2 -53 -16 -59 -53l-3 -14h39l-18 -101h-89zM28 538l20 109c10 61 29 103 96 103c7 0 18 -1 21 -2l-7 -42c-38 -2 -53 -16 -59 -53l-3 -14h38l-18 -101h-88z" />
    <glyph glyph-name="quotedblright" unicode="&#x201d;" horiz-adv-x="350" 
d="M167 749l-20 -110c-11 -62 -29 -103 -95 -103c-8 0 -17 1 -22 2l8 42c37 2 52 16 58 53l3 15h-39l18 101h89zM325 749l-20 -110c-11 -62 -29 -103 -95 -103c-8 0 -17 1 -22 2l8 42c37 2 52 16 58 53l3 15h-39l18 101h89z" />
    <glyph glyph-name="quotedblbase" unicode="&#x201e;" horiz-adv-x="358" 
d="M173 101l-20 -110c-11 -62 -29 -103 -95 -103c-8 0 -17 1 -22 2l8 42c37 2 52 16 58 53l3 15h-39l18 101h89zM330 101l-20 -110c-11 -62 -29 -103 -95 -103c-8 0 -17 1 -22 2l8 42c37 2 52 16 58 53l3 15h-39l18 101h89z" />
    <glyph glyph-name="dagger" unicode="&#x2020;" horiz-adv-x="623" 
d="M356 749h83l-43 -245h200l-13 -73h-200l-116 -658h-83l116 658h-200l13 73h200z" />
    <glyph glyph-name="daggerdbl" unicode="&#x2021;" horiz-adv-x="674" 
d="M58 407h88l16 92c37 208 117 258 291 258c138 0 185 -34 185 -129c0 -28 -4 -60 -11 -99h-83c5 27 7 48 7 67c0 68 -32 88 -107 88c-126 0 -173 -38 -191 -139l-24 -138h233l-13 -73h-233l-11 -65c-23 -128 -51 -180 -102 -196h401l-13 -73h-515l13 73
c60 15 109 61 134 203l10 58h-88z" />
    <glyph glyph-name="bullet" unicode="&#x2022;" horiz-adv-x="674" 
d="M313 214c-53 0 -90 37 -90 87c0 68 61 128 127 128c61 0 92 -46 92 -86c0 -77 -68 -129 -129 -129z" />
    <glyph glyph-name="ellipsis" unicode="&#x2026;" horiz-adv-x="671" 
d="M165 101l-18 -101h-89l18 101h89zM389 101l-18 -101h-89l18 101h89zM613 101l-18 -101h-89l18 101h89z" />
    <glyph glyph-name="perthousand" unicode="&#x2030;" horiz-adv-x="1297" 
d="M259 750c108 0 143 -21 143 -84c0 -19 -2 -34 -23 -153c-19 -107 -50 -140 -186 -140c-109 0 -145 21 -145 85c0 19 2 33 23 151c20 111 53 141 188 141zM252 709c-71 0 -115 -6 -129 -87c-25 -139 -26 -148 -26 -155c0 -51 41 -53 103 -53c72 0 113 2 128 84
c23 128 25 140 25 153c0 54 -39 58 -101 58zM796 750l-640 -750h-51l637 750h54zM709 377c108 0 143 -21 143 -84c0 -19 -2 -34 -23 -153c-19 -107 -50 -140 -186 -140c-109 0 -145 21 -145 85c0 19 2 33 23 151c20 111 53 141 188 141zM702 336c-71 0 -115 -6 -129 -87
c-25 -139 -26 -148 -26 -155c0 -51 41 -53 103 -53c72 0 113 2 128 84c23 128 25 140 25 153c0 54 -39 58 -101 58zM1100 377c108 0 143 -21 143 -84c0 -19 -2 -34 -23 -153c-19 -107 -50 -140 -186 -140c-109 0 -145 21 -145 85c0 19 2 33 23 151c20 111 53 141 188 141z
M1093 336c-71 0 -115 -6 -129 -87c-25 -139 -26 -148 -26 -155c0 -51 41 -53 103 -53c72 0 113 2 128 84c23 128 25 140 25 153c0 54 -39 58 -101 58z" />
    <glyph glyph-name="guilsinglleft" unicode="&#x2039;" horiz-adv-x="320" 
d="M243 575l51 -35l-163 -251l87 -253l-62 -36l-99 289z" />
    <glyph glyph-name="guilsinglright" unicode="&#x203a;" horiz-adv-x="308" 
d="M179 575l83 -286l-202 -289l-47 36l174 253l-73 251z" />
    <glyph glyph-name="Euro" unicode="&#x20ac;" horiz-adv-x="687" 
d="M691 693l-16 -91c-32 40 -94 76 -186 76c-143 0 -234 -93 -271 -195h384l-39 -67h-368c-2 -9 -6 -23 -8 -37c-3 -17 -5 -32 -6 -42h337l-39 -67h-298c2 -118 68 -199 203 -199c90 0 160 36 211 77l-17 -92c-36 -29 -117 -63 -216 -63c-169 0 -264 95 -264 277h-86l39 67
h52c1 10 3 27 6 42c2 15 5 28 8 37h-79l38 67h59c53 143 166 274 362 274c94 0 163 -33 194 -64z" />
    <glyph glyph-name="afii61352" unicode="&#x2116;" horiz-adv-x="1200" 
d="M720 117h358l-8 -44h-358zM970 514c93 0 126 -21 126 -88c0 -20 -3 -44 -11 -91c-18 -104 -38 -155 -168 -155c-91 0 -133 24 -133 98c0 15 2 32 10 79c22 122 52 157 176 157zM965 468c-69 0 -99 -28 -111 -96c-12 -65 -14 -82 -14 -95c0 -41 20 -51 71 -51
c89 0 100 13 116 103c10 59 12 74 12 87c0 34 -15 52 -74 52zM136 749h132l302 -684l120 684h83l-132 -749h-132l-303 677l-119 -677h-83z" />
    <glyph glyph-name="trademark" unicode="&#x2122;" horiz-adv-x="826" 
d="M107 352l63 355h-129l7 41h301l-7 -41h-128l-63 -355h-44zM462 748l80 -339l201 339h72l-70 -396h-44l64 364l-214 -364h-38l-86 361l-64 -361h-44l70 396h73z" />
    <glyph glyph-name="hyphenminus" horiz-adv-x="579" 
d="M44 405h493l-8 -47h-493z" />
    </font>
</defs>
</svg>
