<?xml version="1.0" standalone="no"?>
<!DOCTYPE svg PUBLIC "-//W3C//DTD SVG 1.1//EN" "http://www.w3.org/Graphics/SVG/1.1/DTD/svg11.dtd" >
<svg>
<metadata>
Created by FontForge 20090914 at Sat Jul 13 02:41:03 2019
 By www-data
Copyright (C) 1995; Type Market Ltd. Moscow, 119136, Box 20; phone:(095)1427712; Created by A.Kustov
</metadata>
<defs>
<font id="Europe-Bold" horiz-adv-x="720" >
  <font-face 
    font-family="Europe"
    font-weight="700"
    font-stretch="normal"
    units-per-em="1000"
    panose-1="4 0 8 0 0 0 0 0 0 0"
    ascent="763"
    descent="-237"
    x-height="525"
    cap-height="750"
    bbox="-19 -237 1267 969"
    underline-thickness="75"
    underline-position="-39"
    stemh="132"
    stemv="172"
    unicode-range="U+0020-U+2122"
  />
<missing-glyph horiz-adv-x="500" 
 />
    <glyph glyph-name=".notdef" horiz-adv-x="500" 
 />
    <glyph glyph-name="space" unicode=" " horiz-adv-x="360" 
 />
    <glyph glyph-name="space" unicode="&#xa0;" horiz-adv-x="360" 
 />
    <glyph glyph-name="exclam" unicode="!" horiz-adv-x="349" 
d="M256 164v-164h-162v164h162zM268 750l-12 -454h-162l-12 454h186z" />
    <glyph glyph-name="quotedbl" unicode="&#x22;" horiz-adv-x="442" 
d="M41 750h138v-130l-42 -129h-54l-42 129v130zM263 750h138v-130l-42 -129h-54l-42 129v130z" />
    <glyph glyph-name="numbersign" unicode="#" 
d="M283 749h106l-40 -209h101l40 209h104l-39 -209h80v-115h-98l-24 -130h94v-115h-118l-33 -180h-106l33 180h-101l-33 -180h-106l33 180h-91v115h113l24 130h-96v115h117zM328 425l-24 -130h102l26 130h-104z" />
    <glyph glyph-name="dollar" unicode="$" 
d="M309 462l97 -9c181 -16 291 -33 291 -219c0 -184 -83 -240 -291 -240v-92h-97v92c-184 0 -286 36 -286 253h180c0 -93 31 -97 106 -97h97c73 0 111 14 111 77c0 55 -20 67 -111 74l-97 7c-239 17 -276 66 -276 218c0 191 67 230 276 230v82h97v-82
c157 -9 266 -24 266 -230h-175c0 67 -25 74 -91 74h-97c-62 0 -96 -6 -96 -74c0 -49 16 -57 96 -64z" />
    <glyph glyph-name="percent" unicode="%" horiz-adv-x="907" 
d="M742 750l-443 -750h-120l443 750h120zM718 375c117 0 166 -16 166 -135v-110c0 -120 -49 -136 -165 -136c-117 0 -160 16 -160 135v110c0 121 43 136 159 136zM718 288c-49 0 -59 -1 -59 -60v-83c0 -63 10 -64 59 -64c50 0 66 1 66 64v83c0 59 -12 60 -66 60zM182 756
c117 0 166 -16 166 -135v-110c0 -120 -49 -136 -165 -136c-117 0 -160 16 -160 135v110c0 121 43 136 159 136zM182 669c-49 0 -59 -1 -59 -60v-83c0 -63 10 -64 59 -64c50 0 66 1 66 64v83c0 59 -12 60 -66 60z" />
    <glyph glyph-name="ampersand" unicode="&#x26;" horiz-adv-x="774" 
d="M671 0l-69 62c-48 -64 -127 -72 -222 -72c-192 0 -326 24 -326 242c0 95 22 196 133 196c-47 41 -57 65 -57 127c0 172 84 201 250 201c170 0 260 -24 260 -205v-38h-172c0 83 -6 94 -88 94c-51 0 -66 -12 -66 -66c0 -34 15 -51 40 -74l182 -164v99h161v-147
c0 -24 -8 -50 -20 -73l83 -75zM483 169l-199 172c-43 -5 -46 -21 -46 -89c0 -92 51 -103 142 -103c39 0 71 6 103 20z" />
    <glyph glyph-name="quotesingle" unicode="'" horiz-adv-x="220" 
d="M41 750h138v-130l-42 -129h-54l-42 129v130z" />
    <glyph glyph-name="parenleft" unicode="(" horiz-adv-x="385" 
d="M328 756v-162c-75 0 -81 -46 -81 -129v-324c0 -64 16 -129 82 -129v-162c-260 0 -272 86 -272 318v264c0 215 1 324 271 324z" />
    <glyph glyph-name="parenright" unicode=")" horiz-adv-x="385" 
d="M57 594v162c268 0 271 -109 271 -324v-264c0 -232 -10 -318 -270 -318v162c78 0 80 65 80 129v324c0 83 -6 129 -81 129z" />
    <glyph glyph-name="asterisk" unicode="*" 
d="M565 564l-125 -39l75 -107l-73 -56l-78 112l-84 -111l-76 55l78 108l-127 46l32 88l126 -45v136h93v-136l130 45z" />
    <glyph glyph-name="plus" unicode="+" horiz-adv-x="600" 
d="M242 334v190h115v-190h193v-115h-193v-199h-115v199h-192v115h192z" />
    <glyph glyph-name="comma" unicode="," horiz-adv-x="360" 
d="M95 164h162v-164c0 -103 -35 -142 -172 -142v74c58 0 72 18 72 68h-62v164z" />
    <glyph glyph-name="period" unicode="." horiz-adv-x="360" 
d="M252 164v-164h-162v164h162z" />
    <glyph glyph-name="slash" unicode="/" horiz-adv-x="637" 
d="M608 750l-441 -863h-137l441 863h137z" />
    <glyph glyph-name="zero" unicode="0" horiz-adv-x="724" 
d="M362 757c158 0 312 -11 312 -264v-236c0 -253 -154 -267 -312 -267s-312 14 -312 267v236c0 253 154 264 312 264zM362 601c-99 0 -123 -12 -123 -140v-172c0 -128 24 -143 123 -143s123 14 123 142v175c0 127 -24 138 -123 138z" />
    <glyph glyph-name="one" unicode="1" 
d="M558 750v-750h-200v573l-194 -177l-113 128l273 226h234z" />
    <glyph glyph-name="two" unicode="2" 
d="M653 156v-156h-591v156c0 163 36 208 264 256c133 28 138 34 138 104c0 75 -26 85 -106 85c-91 0 -107 -8 -107 -88v-36h-189v37c0 204 105 243 296 243c176 0 295 -26 295 -237c0 -168 -49 -200 -206 -243c-152 -41 -196 -20 -196 -121h402z" />
    <glyph glyph-name="three" unicode="3" 
d="M252 499h-189v26c0 214 113 232 305 232c121 0 285 -11 285 -203c0 -84 -22 -157 -114 -169v-8c96 -4 123 -73 123 -160c0 -194 -125 -227 -294 -227c-174 0 -313 15 -313 229v40h189v-25c0 -84 45 -88 115 -88c82 0 114 8 114 95c0 51 -9 70 -114 70h-48v145h48
c97 0 105 10 105 61c0 62 -3 84 -105 84c-73 0 -107 -17 -107 -87v-15z" />
    <glyph glyph-name="four" unicode="4" 
d="M618 750v-457h64v-145h-64v-148h-190v148h-392v214l287 388h295zM428 293v303h-7l-228 -303h235z" />
    <glyph glyph-name="five" unicode="5" 
d="M83 750h542v-145h-370v-144c50 53 70 55 165 55c182 0 235 -72 235 -246c0 -239 -87 -280 -304 -280c-185 0 -286 41 -286 224h190c4 -63 40 -68 96 -68c87 0 115 6 115 103c0 96 -4 118 -116 118c-64 0 -84 -1 -95 -37h-172v420z" />
    <glyph glyph-name="six" unicode="6" 
d="M343 146c107 0 121 9 121 91c0 61 -33 62 -121 62c-74 0 -96 -7 -96 -66c0 -69 12 -87 96 -87zM660 521h-190c0 75 -30 80 -104 80c-91 0 -119 -5 -119 -105v-118h3c25 73 71 77 136 77c176 0 267 -20 267 -215c0 -209 -95 -250 -287 -250c-246 0 -308 54 -308 307v188
c0 232 91 272 308 272c155 0 294 -9 294 -204v-32z" />
    <glyph glyph-name="seven" unicode="7" 
d="M624 750v-168l-249 -582h-210l253 586h-360v164h566z" />
    <glyph glyph-name="eight" unicode="8" 
d="M358 309c-92 0 -114 -8 -114 -79c0 -65 28 -84 114 -84c112 0 118 21 118 87c0 70 -14 76 -118 76zM360 601c-82 0 -102 -9 -102 -76c0 -64 29 -71 102 -71c85 0 105 8 105 78c0 52 -8 69 -105 69zM191 380v7c-91 23 -122 76 -122 171c0 183 144 199 291 199
c161 0 294 -15 294 -208c0 -101 -23 -133 -114 -162v-7c97 -13 125 -84 125 -173c0 -198 -137 -217 -305 -217c-160 0 -305 22 -305 217c0 86 41 169 136 173z" />
    <glyph glyph-name="nine" unicode="9" 
d="M374 451c74 0 96 7 96 66c0 69 -12 84 -96 84c-107 0 -122 -5 -122 -87c0 -60 34 -63 122 -63zM58 225h190c0 -75 30 -79 104 -79c91 0 118 7 118 107v120l-5 1c-26 -77 -69 -79 -134 -79c-176 0 -268 20 -268 215c0 209 96 247 288 247c246 0 308 -51 308 -304v-188
c0 -232 -90 -275 -307 -275c-155 0 -294 8 -294 203v32z" />
    <glyph glyph-name="colon" unicode=":" horiz-adv-x="360" 
d="M251 164v-164h-162v164h162zM251 525v-164h-162v164h162z" />
    <glyph glyph-name="semicolon" unicode=";" horiz-adv-x="360" 
d="M95 164h162v-164c0 -103 -35 -142 -172 -142v74c58 0 72 18 72 68h-62v164zM257 525v-164h-162v164h162z" />
    <glyph glyph-name="less" unicode="&#x3c;" horiz-adv-x="600" 
d="M550 525v-128l-338 -119l-1 -1l339 -120v-128l-500 188v120z" />
    <glyph glyph-name="equal" unicode="=" horiz-adv-x="600" 
d="M50 449h500v-115h-500v115zM50 219h500v-115h-500v115z" />
    <glyph glyph-name="greater" unicode="&#x3e;" horiz-adv-x="600" 
d="M50 525l500 -188v-120l-500 -188v128l338 119l1 2l-339 119v128z" />
    <glyph glyph-name="question" unicode="?" horiz-adv-x="605" 
d="M218 532h-172v31c0 172 102 193 262 193c153 0 252 -23 252 -193c0 -130 -39 -159 -145 -206c-42 -18 -54 -32 -54 -62v-30h-172v30c0 93 17 132 128 178c54 22 72 45 72 90c0 53 -27 62 -81 62c-51 0 -90 -6 -90 -62v-31zM356 164v-164h-162v164h162z" />
    <glyph glyph-name="at" unicode="@" horiz-adv-x="760" 
d="M293 351v-1c0 -46 25 -88 74 -88c62 0 102 55 102 112c0 49 -31 84 -80 84c-57 0 -96 -55 -96 -107zM498 506l10 51h95l-49 -292c-1 -5 -3 -17 -3 -23c0 -8 3 -13 15 -13c43 0 95 76 95 184c0 162 -113 253 -266 253c-168 0 -279 -127 -279 -293
c0 -177 125 -289 296 -289c76 0 142 29 191 67h99c-72 -99 -174 -157 -298 -157c-215 0 -388 160 -388 379c0 215 169 383 382 383c168 0 347 -132 347 -311c0 -151 -114 -291 -250 -291c-33 0 -58 14 -58 49l-2 2c-24 -28 -62 -47 -96 -47c-88 0 -168 79 -168 177
c0 118 80 230 204 230c51 0 93 -18 123 -59z" />
    <glyph glyph-name="A" unicode="A" horiz-adv-x="767" 
d="M519 129h-269l-37 -129h-208l225 750h304l228 -750h-204zM478 274l-92 326h-2l-91 -326h185z" />
    <glyph glyph-name="B" unicode="B" horiz-adv-x="753" 
d="M65 0v750h394c149 0 237 -28 237 -192c0 -95 -19 -157 -118 -173v-8c111 -7 130 -74 130 -168c0 -184 -86 -209 -245 -209h-398zM265 586v-136h144c70 0 87 12 87 72c0 45 -10 64 -63 64h-168zM265 311v-147h151c65 0 92 15 92 76c0 62 -23 71 -88 71h-155z" />
    <glyph glyph-name="C" unicode="C" horiz-adv-x="750" 
d="M705 481h-206v29c0 60 -55 73 -123 73c-114 0 -125 -36 -125 -143v-117c0 -112 5 -159 125 -159c83 0 123 6 123 94v22h206v-22c0 -211 -73 -268 -307 -268c-204 0 -353 14 -353 288v194c0 248 133 285 353 285c199 0 307 -55 307 -247v-29z" />
    <glyph glyph-name="D" unicode="D" horiz-adv-x="792" 
d="M65 0v750h380c209 0 302 -78 302 -291v-157c0 -205 -66 -302 -275 -302h-407zM265 576v-402h176c74 0 100 49 100 128v157c0 97 -31 117 -101 117h-175z" />
    <glyph glyph-name="E" unicode="E" horiz-adv-x="679" 
d="M265 586v-137h320v-139h-320v-146h348v-164h-548v750h541v-164h-341z" />
    <glyph glyph-name="F" unicode="F" horiz-adv-x="632" 
d="M65 750h532v-164h-332v-147h306v-164h-306v-275h-200v750z" />
    <glyph glyph-name="G" unicode="G" horiz-adv-x="778" 
d="M733 518h-203c0 63 -69 75 -129 75c-144 0 -150 -45 -150 -166v-122c0 -133 46 -151 150 -151c102 0 129 23 129 127h-138v139h341v-131c0 -253 -64 -299 -332 -299c-236 0 -356 44 -356 287v194c0 248 136 286 356 286c194 0 332 -35 332 -239z" />
    <glyph glyph-name="H" unicode="H" horiz-adv-x="791" 
d="M265 750v-282h261v282h200v-750h-200v294h-261v-294h-200v750h200z" />
    <glyph glyph-name="I" unicode="I" horiz-adv-x="330" 
d="M265 750v-750h-200v750h200z" />
    <glyph glyph-name="J" unicode="J" horiz-adv-x="602" 
d="M343 750h200v-519c0 -201 -60 -241 -270 -241c-208 0 -251 49 -251 258v62h190v-62c0 -62 7 -84 61 -84c62 0 70 20 70 67v519z" />
    <glyph glyph-name="K" unicode="K" horiz-adv-x="782" 
d="M265 750v-282h60l193 282h242l-264 -368l286 -382h-248l-209 294h-60v-294h-200v750h200z" />
    <glyph glyph-name="L" unicode="L" horiz-adv-x="600" 
d="M265 750v-576h313v-174h-513v750h200z" />
    <glyph glyph-name="M" unicode="M" horiz-adv-x="1058" 
d="M65 750h317l143 -471h7l136 471h325v-750h-200l20 575l-9 2l-188 -577h-173l-189 577l-9 -2l20 -575h-200v750z" />
    <glyph glyph-name="N" unicode="N" horiz-adv-x="871" 
d="M61 750h338l222 -577l1 1l-12 576h200v-750h-341l-219 578l-1 -2l12 -576h-200v750z" />
    <glyph glyph-name="O" unicode="O" horiz-adv-x="784" 
d="M392 -10c-203 0 -347 48 -347 279v212c0 231 144 276 347 276s347 -45 347 -276v-212c0 -231 -144 -279 -347 -279zM392 164c104 0 141 15 141 127v169c0 111 -37 123 -141 123s-141 -11 -141 -123v-169c0 -112 37 -127 141 -127z" />
    <glyph glyph-name="P" unicode="P" horiz-adv-x="743" 
d="M265 208v-208h-200v750h377c186 0 256 -69 256 -265c0 -211 -47 -277 -256 -277h-177zM265 586v-214h137c76 0 90 14 90 111c0 77 -12 103 -90 103h-137z" />
    <glyph glyph-name="Q" unicode="Q" horiz-adv-x="791" 
d="M428 378l107 -76v122c0 133 -17 159 -143 159c-125 0 -141 -26 -141 -159v-135c0 -115 42 -125 141 -125c33 0 64 5 90 15l-133 87zM726 -1l-74 59c-70 -61 -177 -68 -259 -68c-232 0 -348 55 -348 306v158c0 246 120 303 348 303s348 -57 348 -303v-160
c0 -54 -6 -103 -15 -128l82 -56z" />
    <glyph glyph-name="R" unicode="R" horiz-adv-x="750" 
d="M265 218v-218h-200v750h386c174 0 251 -50 251 -224c0 -153 -16 -205 -135 -234v-8c90 -9 135 -48 135 -133v-151h-200v124c0 57 -22 94 -82 94h-155zM265 586v-204h155c78 0 82 24 82 117c0 67 -16 87 -82 87h-155z" />
    <glyph glyph-name="S" unicode="S" horiz-adv-x="733" 
d="M667 515h-192c0 76 -34 78 -112 78c-108 0 -118 -23 -118 -65c0 -53 23 -58 108 -75l192 -38c99 -19 143 -75 143 -175c0 -208 -43 -250 -325 -250c-211 0 -318 25 -318 250h192c0 -78 28 -86 126 -86c94 0 125 10 125 73c0 31 -8 61 -91 73l-191 28
c-82 12 -161 54 -161 200c0 205 122 229 318 229s304 -30 304 -211v-31z" />
    <glyph glyph-name="T" unicode="T" horiz-adv-x="644" 
d="M422 576v-576h-200v576h-202v174h604v-174h-202z" />
    <glyph glyph-name="U" unicode="U" horiz-adv-x="776" 
d="M65 750h200v-487c0 -83 38 -99 123 -99s123 16 123 99v487h200v-500c0 -183 -57 -260 -323 -260c-280 0 -323 80 -323 260v500z" />
    <glyph glyph-name="V" unicode="V" horiz-adv-x="743" 
d="M367 173l169 577h207l-219 -750h-312l-212 750h203l162 -577h2z" />
    <glyph glyph-name="W" unicode="W" horiz-adv-x="1122" 
d="M804 173l117 577h201l-166 -750h-289l-102 470h-8l-109 -470h-286l-162 750h203l108 -577h5l143 577h208l134 -577h3z" />
    <glyph glyph-name="X" unicode="X" horiz-adv-x="775" 
d="M754 750l-207 -364l223 -386h-233l-149 289l-148 -289h-235l225 386l-211 364h234l135 -275l136 275h230z" />
    <glyph glyph-name="Y" unicode="Y" horiz-adv-x="740" 
d="M0 750h229l134 -289h7l138 289h232l-274 -487v-263h-200v263z" />
    <glyph glyph-name="Z" unicode="Z" horiz-adv-x="659" 
d="M636 750v-168l-359 -402v-6h359v-174h-613v169l354 401v6h-331v174h590z" />
    <glyph glyph-name="bracketleft" unicode="[" horiz-adv-x="385" 
d="M57 756h271v-162h-82v-582h83v-162h-272v906z" />
    <glyph glyph-name="backslash" unicode="\" horiz-adv-x="640" 
d="M74 750h140l352 -750h-140z" />
    <glyph glyph-name="bracketright" unicode="]" horiz-adv-x="385" 
d="M328 -150h-270v162h81v582h-81v162h270v-906z" />
    <glyph glyph-name="asciicircum" unicode="^" horiz-adv-x="600" 
d="M180 250h-130l190 500h120l190 -500h-130l-119 338h-2z" />
    <glyph glyph-name="underscore" unicode="_" horiz-adv-x="500" 
d="M500 -76v-74h-500v74h500z" />
    <glyph glyph-name="grave" unicode="`" horiz-adv-x="404" 
d="M125 756l204 -120l-28 -62l-226 71z" />
    <glyph glyph-name="a" unicode="a" horiz-adv-x="609" 
d="M388 78h-6c-13 -72 -91 -86 -151 -86c-120 0 -190 31 -190 165c0 126 66 165 190 165c59 0 125 -2 143 -59h8v83c0 49 -2 85 -77 85c-43 0 -71 -8 -71 -55h-172c0 154 113 159 242 159c176 0 250 -26 250 -207v-328h-172zM382 169c0 44 -38 46 -94 46
c-42 0 -75 -5 -75 -53c0 -54 42 -59 75 -59c72 0 94 11 94 66z" />
    <glyph glyph-name="b" unicode="b" horiz-adv-x="625" 
d="M408 262c0 102 -13 141 -92 141c-76 0 -89 -39 -89 -140c0 -120 12 -139 89 -139c79 0 92 19 92 138zM227 750v-298l8 -2c28 68 83 85 146 85c144 0 199 -68 199 -228v-120c0 -139 -72 -195 -199 -195c-75 0 -130 20 -150 99h-8l4 -91h-172v750h172z" />
    <glyph glyph-name="c" unicode="c" horiz-adv-x="570" 
d="M540 332h-172c0 60 -16 71 -82 71c-61 0 -79 -21 -79 -141c0 -123 14 -138 79 -138c78 0 82 19 82 84h172c0 -187 -77 -216 -254 -216c-203 0 -251 63 -251 270c0 178 36 273 251 273c151 0 254 -21 254 -203z" />
    <glyph glyph-name="d" unicode="d" horiz-adv-x="625" 
d="M398 262c0 102 -13 141 -92 141c-76 0 -89 -39 -89 -140c0 -120 12 -139 89 -139c79 0 92 19 92 138zM398 450v300h172v-750h-172l4 91h-8c-20 -79 -75 -99 -150 -99c-127 0 -199 56 -199 195v120c0 160 55 228 199 228c63 0 121 -17 149 -85h5z" />
    <glyph glyph-name="e" unicode="e" horiz-adv-x="583" 
d="M207 328h169c0 78 -29 87 -87 87c-61 0 -82 -18 -82 -87zM548 233h-341c0 -92 14 -121 85 -121c53 0 84 1 84 56h172c0 -162 -111 -176 -256 -176c-207 0 -257 74 -257 270c0 202 46 273 257 273c197 0 256 -59 256 -273v-29z" />
    <glyph glyph-name="f" unicode="f" horiz-adv-x="393" 
d="M378 525v-126h-117v-399h-172v399h-69v126h69v51c0 138 53 174 282 174v-131c-7 2 -25 5 -36 5c-70 0 -74 -14 -74 -80v-19h117z" />
    <glyph glyph-name="g" unicode="g" horiz-adv-x="625" 
d="M404 432l-6 93h172v-501c0 -196 -44 -261 -247 -261c-185 0 -255 36 -255 181h160c0 -52 36 -55 80 -55c74 0 90 15 90 88v109h-6c-22 -65 -77 -94 -143 -94c-186 0 -204 122 -204 271c0 170 23 272 204 272c74 0 128 -22 149 -103h6zM398 262c0 102 -13 141 -92 141
c-76 0 -89 -39 -89 -140c0 -120 12 -139 89 -139c79 0 92 19 92 138z" />
    <glyph glyph-name="h" unicode="h" horiz-adv-x="615" 
d="M227 750v-323h5c25 83 79 108 160 108c116 0 168 -59 168 -172v-363h-172v323c0 51 -15 80 -71 80c-77 0 -90 -50 -90 -114v-289h-172v750h172z" />
    <glyph glyph-name="i" unicode="i" horiz-adv-x="282" 
d="M227 525v-525h-172v525h172zM227 750v-132h-172v132h172z" />
    <glyph glyph-name="j" unicode="j" horiz-adv-x="282" 
d="M55 525h172v-596c0 -117 -57 -156 -170 -156c-17 0 -34 1 -51 6v117c43 0 49 25 49 51v578zM227 750v-132h-172v132h172z" />
    <glyph glyph-name="k" unicode="k" horiz-adv-x="592" 
d="M227 750v-422h30l104 197h189l-148 -252l182 -273h-201l-126 213h-30v-213h-172v750h172z" />
    <glyph glyph-name="l" unicode="l" horiz-adv-x="282" 
d="M227 750v-750h-172v750h172z" />
    <glyph glyph-name="m" unicode="m" horiz-adv-x="924" 
d="M227 525v-74h2c21 62 85 84 144 84c74 0 150 -17 159 -107h8c9 75 80 107 146 107c121 0 183 -52 183 -175v-360h-172v304c0 55 -2 99 -69 99s-80 -49 -80 -105v-298h-172v318c0 48 -5 85 -65 85c-71 0 -84 -42 -84 -105v-298h-172v525h172z" />
    <glyph glyph-name="n" unicode="n" horiz-adv-x="615" 
d="M227 525v-98h5c25 83 79 108 160 108c116 0 168 -59 168 -172v-363h-172v323c0 51 -15 80 -71 80c-77 0 -90 -50 -90 -114v-289h-172v525h172z" />
    <glyph glyph-name="o" unicode="o" horiz-adv-x="595" 
d="M297 535c220 0 263 -51 263 -273c0 -216 -45 -270 -263 -270c-215 0 -262 60 -262 270c0 215 43 273 262 273zM388 262c0 102 -13 141 -92 141c-76 0 -89 -39 -89 -140c0 -120 12 -139 89 -139c79 0 92 19 92 138z" />
    <glyph glyph-name="p" unicode="p" horiz-adv-x="625" 
d="M408 262c0 102 -13 141 -92 141c-76 0 -89 -39 -89 -140c0 -120 12 -139 89 -139c79 0 92 19 92 138zM227 79v-306h-172v752h172l-4 -83h8c20 71 75 93 150 93c127 0 199 -58 199 -197v-120c0 -160 -55 -226 -199 -226c-63 0 -118 15 -146 87h-8z" />
    <glyph glyph-name="q" unicode="q" horiz-adv-x="625" 
d="M398 262c0 102 -13 141 -92 141c-76 0 -89 -39 -89 -140c0 -120 12 -139 89 -139c79 0 92 19 92 138zM402 442l-4 83h172v-752h-172v306h-8c-28 -72 -82 -87 -145 -87c-144 0 -200 66 -200 226v120c0 139 72 197 199 197c75 0 130 -22 150 -93h8z" />
    <glyph glyph-name="r" unicode="r" horiz-adv-x="512" 
d="M227 525v-77h2c23 60 69 87 133 87c120 0 129 -102 129 -198v-42h-155v26c0 37 -8 82 -49 82c-52 0 -60 -45 -60 -88v-315h-172v525h172z" />
    <glyph glyph-name="s" unicode="s" horiz-adv-x="584" 
d="M524 380h-162c-4 38 -23 44 -70 44c-83 0 -90 -15 -90 -46c0 -26 5 -49 90 -49c177 0 257 -26 257 -158c0 -154 -80 -179 -251 -179c-178 0 -263 15 -263 168h172c0 -50 27 -57 85 -57c70 0 90 7 90 48s-20 52 -90 52c-194 0 -257 52 -257 159c0 154 101 173 257 173
c116 0 232 -11 232 -130v-25z" />
    <glyph glyph-name="t" unicode="t" horiz-adv-x="492" 
d="M449 525v-126h-199v-235c0 -31 7 -46 39 -46c37 0 45 36 45 68v28h138v-47c0 -143 -53 -175 -193 -175c-110 0 -201 16 -201 148v259h-64v126h64v111h172v-111h199z" />
    <glyph glyph-name="u" unicode="u" horiz-adv-x="614" 
d="M55 525h172v-313c0 -54 13 -88 67 -88c46 0 93 26 93 78v323h172v-525h-167l6 101h-8c-24 -81 -84 -109 -157 -109c-104 0 -178 46 -178 174v359z" />
    <glyph glyph-name="v" unicode="v" horiz-adv-x="550" 
d="M547 525l-129 -525h-270l-145 525h180l95 -410h5l86 410h178z" />
    <glyph glyph-name="w" unicode="w" horiz-adv-x="842" 
d="M3 525h165l58 -410h8l87 410h201l87 -410h7l61 410h162l-92 -525h-247l-74 374h-6l-72 -374h-250z" />
    <glyph glyph-name="x" unicode="x" horiz-adv-x="563" 
d="M546 525l-138 -247l152 -278h-202l-75 173l-73 -173h-207l156 278l-135 247h199l60 -145l63 145h200z" />
    <glyph glyph-name="y" unicode="y" horiz-adv-x="553" 
d="M183 525l104 -427h2l85 427h176l-132 -571c-30 -131 -80 -187 -226 -187c-20 0 -39 2 -59 3v121c10 -1 20 -4 30 -4c72 0 87 51 90 113h-94l-156 525h180z" />
    <glyph glyph-name="z" unicode="z" horiz-adv-x="496" 
d="M40 525h435v-136l-254 -269h254v-120h-454v142l248 263h-229v120z" />
    <glyph glyph-name="braceleft" unicode="{" horiz-adv-x="385" 
d="M278 33c0 -20 12 -52 46 -52h37v-132h-142c-36 0 -113 42 -113 134v205c0 51 -29 54 -82 54v132c55 0 82 3 82 44v205c0 92 77 134 113 134h142v-132h-37c-42 0 -46 -27 -46 -52v-171c0 -74 -65 -91 -96 -94v-2c31 -3 96 -12 96 -102v-171z" />
    <glyph glyph-name="bar" unicode="|" horiz-adv-x="600" 
d="M358 750v-750h-115v750h115z" />
    <glyph glyph-name="braceright" unicode="}" horiz-adv-x="385" 
d="M361 374v-132c-20 0 -82 -4 -82 -54v-205c0 -92 -77 -134 -113 -134h-142v132h37c30 0 46 27 46 52v171c0 89 65 99 96 102v2c-31 3 -96 20 -96 94v171c0 25 -8 52 -46 52h-37v132h144c36 0 111 -42 111 -134v-205c0 -39 62 -44 82 -44z" />
    <glyph glyph-name="asciitilde" unicode="~" horiz-adv-x="600" 
d="M453 359h97c0 -87 -26 -205 -128 -205c-21 0 -45 10 -74 29l-123 80c-21 13 -37 19 -50 19c-26 0 -25 -56 -28 -87h-97c0 88 24 207 132 207c20 0 42 -6 67 -23l111 -78c29 -20 44 -26 59 -26c26 0 34 52 34 84z" />
    <glyph glyph-name="currency" unicode="&#xa4;" 
d="M538 252l81 -81l-72 -68l-81 81c-27 -14 -52 -33 -109 -33c-36 0 -76 13 -104 35l-84 -84l-71 70l82 83c-28 34 -38 77 -38 116c0 42 15 80 36 100l-83 81l73 72l82 -82c25 19 67 32 113 32c45 0 84 -13 107 -30l83 82l72 -71l-84 -83c10 -21 35 -46 35 -98
c0 -61 -26 -99 -38 -122zM264 358c0 -51 46 -92 95 -92c70 0 95 61 95 94c0 50 -36 99 -95 99c-58 0 -95 -50 -95 -101z" />
    <glyph glyph-name="brokenbar" unicode="&#xa6;" horiz-adv-x="600" 
d="M358 250v-300h-115v300h115zM358 700v-300h-115v300h115z" />
    <glyph glyph-name="section" unicode="&#xa7;" 
d="M270 215l201 -35c44 0 52 42 52 77c0 46 -15 56 -73 70c-137 33 -184 37 -201 37c-43 0 -52 -35 -52 -70c0 -62 22 -70 73 -79zM660 559v-42h-185c-1 37 -4 58 -20 69c-16 12 -45 14 -101 14c-96 0 -108 -16 -108 -49c0 -51 24 -48 81 -59l188 -34
c127 -23 179 -38 179 -180c0 -64 -1 -125 -62 -156c57 -19 62 -75 62 -138c0 -148 -38 -217 -340 -217c-224 0 -308 25 -308 252h186c0 -85 25 -96 122 -96c122 0 140 15 140 60c0 50 -22 57 -88 68l-238 41c-122 21 -142 49 -142 170c0 59 2 129 71 149
c-46 32 -51 83 -51 149c0 114 32 196 308 196c173 0 306 -10 306 -197z" />
    <glyph glyph-name="copyright" unicode="&#xa9;" horiz-adv-x="800" 
d="M400 -6c-211 0 -381 170 -381 381s170 381 381 381c210 0 381 -170 381 -381s-171 -381 -381 -381zM400 81c161 0 295 131 295 294s-134 294 -295 294c-164 0 -295 -130 -295 -293s131 -295 295 -295zM513 303h89c-11 -97 -92 -155 -186 -155c-134 0 -220 101 -220 230
c0 133 82 231 218 231c97 0 172 -56 188 -151h-89c-9 49 -50 79 -100 79c-86 0 -131 -77 -131 -157c0 -75 50 -160 134 -160c48 0 94 34 97 83z" />
    <glyph glyph-name="guillemotleft" unicode="&#xab;" horiz-adv-x="556" 
d="M174 515l113 -61l-96 -182l96 -169l-107 -66l-134 235zM397 515l113 -61l-96 -182l96 -169l-107 -66l-134 235z" />
    <glyph glyph-name="logicalnot" unicode="&#xac;" horiz-adv-x="600" 
d="M435 42v177h-385v115h500v-292h-115z" />
    <glyph glyph-name="registered" unicode="&#xae;" horiz-adv-x="800" 
d="M400 -6c-211 0 -381 170 -381 381s170 381 381 381c210 0 381 -170 381 -381s-171 -381 -381 -381zM400 81c161 0 295 130 295 293s-134 295 -295 295c-164 0 -295 -130 -295 -293s131 -295 295 -295zM490 340l100 -174h-98l-92 169h-78v-169h-86v412h206
c95 0 160 -17 160 -126c0 -76 -39 -107 -112 -112zM322 401h122c47 0 72 10 72 62c0 41 -38 49 -90 49h-104v-111z" />
    <glyph glyph-name="degree" unicode="&#xb0;" horiz-adv-x="400" 
d="M351 606c0 -83 -68 -150 -150 -150c-83 0 -150 67 -150 150c0 81 67 150 150 150c82 0 150 -68 150 -150zM281 606c0 46 -36 81 -81 81c-44 0 -79 -33 -79 -80c0 -45 35 -82 80 -82c44 0 80 36 80 81z" />
    <glyph glyph-name="plusminus" unicode="&#xb1;" horiz-adv-x="600" 
d="M242 606h115v-119h193v-115h-193v-122h-115v122h-192v115h192v119zM50 80v115h500v-115h-500z" />
    <glyph glyph-name="mu" unicode="&#xb5;" horiz-adv-x="614" 
d="M55 525h172v-313c0 -48 5 -87 63 -87c46 0 97 25 97 77v323h172v-525h-172l11 101h-8c-24 -81 -84 -107 -163 -107v-221h-172v752z" />
    <glyph glyph-name="mu" unicode="&#x3bc;" horiz-adv-x="614" 
d="M55 525h172v-313c0 -48 5 -87 63 -87c46 0 97 25 97 77v323h172v-525h-172l11 101h-8c-24 -81 -84 -107 -163 -107v-221h-172v752z" />
    <glyph glyph-name="paragraph" unicode="&#xb6;" 
d="M713 -227h-120v832h-77v-832h-120v422h-130c-220 0 -266 59 -266 278c0 198 70 277 256 277h457v-977zM396 340v265h-100c-107 0 -111 -30 -111 -132c0 -109 5 -133 112 -133h99z" />
    <glyph glyph-name="periodcentered" unicode="&#xb7;" horiz-adv-x="360" 
d="M261 363v-164h-162v164h162z" />
    <glyph glyph-name="periodcentered" unicode="&#x2219;" horiz-adv-x="360" 
d="M261 363v-164h-162v164h162z" />
    <glyph glyph-name="guillemotright" unicode="&#xbb;" horiz-adv-x="556" 
d="M375 37l-113 61l96 182l-96 169l107 66l134 -235zM152 37l-113 61l96 182l-96 169l107 66l134 -235z" />
    <glyph glyph-name="afii10023" unicode="&#x401;" horiz-adv-x="679" 
d="M265 586v-137h320v-139h-320v-146h348v-164h-548v750h541v-164h-341zM290 937v-103h-109v103h109zM498 937v-103h-109v103h109z" />
    <glyph glyph-name="afii10051" unicode="&#x402;" horiz-adv-x="874" 
d="M7 750h670v-156h-235v-134h144c170 0 243 -65 243 -230c0 -138 -47 -230 -243 -230h-77v156h38c57 0 82 10 82 72c0 52 -12 76 -78 76h-109v-304h-200v594h-235v156z" />
    <glyph glyph-name="afii10052" unicode="&#x403;" horiz-adv-x="632" 
d="M65 750h532v-164h-332v-586h-200v750zM551 969l-181 -164h-95l107 164h169z" />
    <glyph glyph-name="afii10053" unicode="&#x404;" horiz-adv-x="739" 
d="M498 269h206v-48c0 -207 -145 -231 -306 -231c-204 0 -353 14 -353 288v194c0 236 124 285 344 285c199 0 315 -54 315 -246v-10h-206v19c0 59 -44 73 -122 73c-103 0 -125 -29 -125 -143h182v-139h-182c0 -108 5 -157 125 -157c83 0 122 5 122 93v22z" />
    <glyph glyph-name="afii10054" unicode="&#x405;" horiz-adv-x="733" 
d="M667 515h-192c0 76 -34 78 -112 78c-108 0 -118 -23 -118 -65c0 -53 23 -58 108 -75l192 -38c99 -19 143 -75 143 -175c0 -208 -43 -250 -325 -250c-211 0 -318 25 -318 250h192c0 -78 28 -86 126 -86c94 0 125 10 125 73c0 31 -8 61 -91 73l-191 28
c-82 12 -161 54 -161 200c0 205 122 229 318 229s304 -30 304 -211v-31z" />
    <glyph glyph-name="afii10055" unicode="&#x406;" horiz-adv-x="330" 
d="M265 750v-750h-200v750h200z" />
    <glyph glyph-name="afii10056" unicode="&#x407;" horiz-adv-x="331" 
d="M265 750v-750h-200v750h200zM115 937v-103h-109v103h109zM325 937v-103h-109v103h109z" />
    <glyph glyph-name="afii10057" unicode="&#x408;" horiz-adv-x="602" 
d="M343 750h200v-519c0 -201 -60 -241 -270 -241c-208 0 -251 49 -251 258v62h190v-62c0 -62 7 -84 61 -84c62 0 70 20 70 67v519z" />
    <glyph glyph-name="afii10058" unicode="&#x409;" horiz-adv-x="1214" 
d="M145 750h607v-290h186c153 0 231 -62 231 -230s-80 -230 -231 -230h-386v576h-217v-315c0 -164 -71 -269 -223 -269c-43 0 -71 3 -102 9v162c18 -6 34 -7 61 -7c55 0 74 28 74 102v492zM752 304v-148h139c57 0 78 14 78 72c0 62 -21 76 -78 76h-139z" />
    <glyph glyph-name="afii10059" unicode="&#x40a;" horiz-adv-x="1188" 
d="M265 750v-290h261v290h200v-290h186c153 0 231 -62 231 -230s-80 -230 -231 -230h-386v304h-261v-304h-200v750h200zM726 304v-148h139c57 0 78 14 78 72c0 62 -21 76 -78 76h-139z" />
    <glyph glyph-name="afii10060" unicode="&#x40b;" horiz-adv-x="874" 
d="M7 750h670v-156h-235v-134h142c164 0 235 -67 235 -230v-230h-200v228c0 52 -12 76 -78 76h-99v-304h-200v594h-235v156z" />
    <glyph glyph-name="afii10061" unicode="&#x40c;" horiz-adv-x="782" 
d="M265 750v-282h60l193 282h242l-264 -368l286 -382h-248l-209 294h-60v-294h-200v750h200zM568 969l-181 -164h-95l107 164h169z" />
    <glyph glyph-name="afii10062" unicode="&#x40e;" horiz-adv-x="740" 
d="M2 750h227l132 -322h9l129 322h231l-292 -592c-59 -119 -126 -168 -232 -168c-39 0 -69 4 -100 9v162c18 -6 39 -7 66 -7c63 0 75 11 88 50zM274 958c0 -53 25 -67 91 -67s91 14 91 67h84c0 -135 -67 -153 -175 -153c-109 0 -175 18 -175 153h84z" />
    <glyph glyph-name="afii10145" unicode="&#x40f;" horiz-adv-x="791" 
d="M265 750v-576h261v576h200v-750h-260v-171h-141v171h-260v750h200z" />
    <glyph glyph-name="afii10017" unicode="&#x410;" horiz-adv-x="767" 
d="M519 129h-269l-37 -129h-208l225 750h304l228 -750h-204zM478 274l-92 326h-2l-91 -326h185z" />
    <glyph glyph-name="afii10018" unicode="&#x411;" horiz-adv-x="727" 
d="M612 750v-156h-347v-134h186c153 0 231 -62 231 -230s-80 -230 -231 -230h-386v750h547zM265 304v-148h139c57 0 78 14 78 72c0 62 -21 76 -78 76h-139z" />
    <glyph glyph-name="afii10019" unicode="&#x412;" horiz-adv-x="753" 
d="M65 0v750h394c149 0 237 -28 237 -192c0 -95 -19 -157 -118 -173v-8c111 -7 130 -74 130 -168c0 -184 -86 -209 -245 -209h-398zM265 586v-136h144c70 0 87 12 87 72c0 45 -10 64 -63 64h-168zM265 311v-147h151c65 0 92 15 92 76c0 62 -23 71 -88 71h-155z" />
    <glyph glyph-name="afii10020" unicode="&#x413;" horiz-adv-x="632" 
d="M65 750h532v-164h-332v-586h-200v750z" />
    <glyph glyph-name="afii10021" unicode="&#x414;" horiz-adv-x="817" 
d="M155 750h577v-578h63v-345h-190v173h-393v-173h-190v345h59c52 71 74 151 74 315v263zM532 578h-187v-103c0 -148 -20 -229 -62 -303h249v406z" />
    <glyph glyph-name="afii10022" unicode="&#x415;" horiz-adv-x="679" 
d="M265 586v-137h320v-139h-320v-146h348v-164h-548v750h541v-164h-341z" />
    <glyph glyph-name="afii10024" unicode="&#x416;" horiz-adv-x="1171" 
d="M683 468h60l166 282h228l-226 -363l260 -387h-248l-180 294h-60v-294h-189v294h-60l-180 -294h-248l260 387l-226 363h228l166 -282h60v282h189v-282z" />
    <glyph glyph-name="afii10025" unicode="&#x417;" horiz-adv-x="733" 
d="M294 311v139h95c62 0 87 12 87 72c0 45 -15 71 -118 71c-80 0 -113 -14 -113 -77h-191v31c0 166 111 210 307 210c195 0 315 -42 315 -199c0 -95 -19 -157 -118 -173v-8c97 -9 130 -66 130 -158c0 -174 -52 -229 -325 -229c-211 0 -318 36 -318 250h192
c0 -78 28 -86 126 -86c94 0 125 17 125 80c0 54 -23 77 -88 77h-106z" />
    <glyph glyph-name="afii10026" unicode="&#x418;" horiz-adv-x="824" 
d="M255 750v-494h7l234 494h263v-750h-190v494h-7l-225 -494h-272v750h190z" />
    <glyph glyph-name="afii10027" unicode="&#x419;" horiz-adv-x="824" 
d="M255 750v-494h7l234 494h263v-750h-190v494h-7l-225 -494h-272v750h190zM304 958c0 -53 25 -67 91 -67s91 14 91 67h84c0 -135 -67 -153 -175 -153c-109 0 -175 18 -175 153h84z" />
    <glyph glyph-name="afii10028" unicode="&#x41a;" horiz-adv-x="782" 
d="M265 750v-282h60l193 282h242l-264 -368l286 -382h-248l-209 294h-60v-294h-200v750h200z" />
    <glyph glyph-name="afii10029" unicode="&#x41b;" horiz-adv-x="817" 
d="M145 750h607v-750h-200v576h-217v-315c0 -164 -71 -269 -223 -269c-43 0 -71 3 -102 9v162c18 -6 34 -7 61 -7c55 0 74 28 74 102v492z" />
    <glyph glyph-name="afii10030" unicode="&#x41c;" horiz-adv-x="1058" 
d="M65 750h317l143 -471h7l136 471h325v-750h-200l20 575l-9 2l-188 -577h-173l-189 577l-9 -2l20 -575h-200v750z" />
    <glyph glyph-name="afii10031" unicode="&#x41d;" horiz-adv-x="791" 
d="M265 750v-282h261v282h200v-750h-200v294h-261v-294h-200v750h200z" />
    <glyph glyph-name="afii10032" unicode="&#x41e;" horiz-adv-x="784" 
d="M392 -10c-203 0 -347 48 -347 279v212c0 231 144 276 347 276s347 -45 347 -276v-212c0 -231 -144 -279 -347 -279zM392 164c104 0 141 15 141 127v169c0 111 -37 123 -141 123s-141 -11 -141 -123v-169c0 -112 37 -127 141 -127z" />
    <glyph glyph-name="afii10033" unicode="&#x41f;" horiz-adv-x="791" 
d="M65 750h661v-750h-200v576h-261v-576h-200v750z" />
    <glyph glyph-name="afii10034" unicode="&#x420;" horiz-adv-x="743" 
d="M265 208v-208h-200v750h377c186 0 256 -69 256 -265c0 -211 -47 -277 -256 -277h-177zM265 586v-214h137c76 0 90 14 90 111c0 77 -12 103 -90 103h-137z" />
    <glyph glyph-name="afii10035" unicode="&#x421;" horiz-adv-x="750" 
d="M705 481h-206v29c0 60 -55 73 -123 73c-114 0 -125 -36 -125 -143v-117c0 -112 5 -159 125 -159c83 0 123 6 123 94v22h206v-22c0 -211 -73 -268 -307 -268c-204 0 -353 14 -353 288v194c0 248 133 285 353 285c199 0 307 -55 307 -247v-29z" />
    <glyph glyph-name="afii10036" unicode="&#x422;" horiz-adv-x="644" 
d="M422 576v-576h-200v576h-202v174h604v-174h-202z" />
    <glyph glyph-name="afii10037" unicode="&#x423;" horiz-adv-x="740" 
d="M2 750h227l132 -322h9l129 322h231l-292 -592c-59 -119 -126 -168 -232 -168c-39 0 -69 4 -100 9v162c18 -6 39 -7 66 -7c63 0 75 11 88 50z" />
    <glyph glyph-name="afii10038" unicode="&#x424;" horiz-adv-x="1040" 
d="M620 0h-200v78h-103c-198 0 -272 65 -272 297c0 228 75 300 273 300h102v75h200v-75h101c199 0 274 -71 274 -300c0 -231 -75 -297 -274 -297h-101v-78zM620 511v-269h68c74 0 101 30 101 133c0 98 -25 136 -101 136h-68zM420 242v269h-69c-76 0 -100 -38 -100 -136
c0 -103 24 -133 98 -133h71z" />
    <glyph glyph-name="afii10039" unicode="&#x425;" horiz-adv-x="775" 
d="M754 750l-207 -364l223 -386h-233l-149 289l-148 -289h-235l225 386l-211 364h234l135 -275l136 275h230z" />
    <glyph glyph-name="afii10040" unicode="&#x426;" horiz-adv-x="810" 
d="M265 750v-576h261v576h200v-576h62v-345h-190v171h-533v750h200z" />
    <glyph glyph-name="afii10041" unicode="&#x427;" horiz-adv-x="763" 
d="M65 750h200v-185c0 -89 23 -111 116 -111c51 0 78 3 116 14v282h200v-750h-200v300c-42 -13 -105 -20 -163 -20c-203 0 -269 76 -269 256v214z" />
    <glyph glyph-name="afii10042" unicode="&#x428;" horiz-adv-x="1118" 
d="M265 750v-576h194v576h200v-576h194v576h200v-750h-988v750h200z" />
    <glyph glyph-name="afii10043" unicode="&#x429;" horiz-adv-x="1137" 
d="M265 750v-576h194v576h200v-576h194v576h200v-576h62v-345h-190v171h-860v750h200z" />
    <glyph glyph-name="afii10044" unicode="&#x42a;" horiz-adv-x="823" 
d="M370 750v-290h186c153 0 231 -62 231 -230s-80 -230 -231 -230h-386v586h-170v164h370zM370 304v-148h139c57 0 78 14 78 72c0 62 -21 76 -78 76h-139z" />
    <glyph glyph-name="afii10045" unicode="&#x42b;" horiz-adv-x="1060" 
d="M265 750v-290h186c153 0 231 -62 231 -230s-80 -230 -231 -230h-386v750h200zM265 304v-148h139c57 0 78 14 78 72c0 62 -21 76 -78 76h-139zM995 750v-750h-200v750h200z" />
    <glyph glyph-name="afii10046" unicode="&#x42c;" horiz-adv-x="727" 
d="M265 750v-290h186c153 0 231 -62 231 -230s-80 -230 -231 -230h-386v750h200zM265 304v-148h139c57 0 78 14 78 72c0 62 -21 76 -78 76h-139z" />
    <glyph glyph-name="afii10047" unicode="&#x42d;" horiz-adv-x="740" 
d="M241 501h-206c0 156 122 256 321 256c220 0 339 -45 339 -285v-194c0 -274 -138 -288 -342 -288c-200 0 -318 33 -318 248v32h206v-22c0 -88 40 -94 123 -94c112 0 125 49 125 157h-190v139h190c0 107 -13 143 -125 143c-76 0 -123 -14 -123 -92z" />
    <glyph glyph-name="afii10048" unicode="&#x42e;" horiz-adv-x="1122" 
d="M265 468h118v13c0 231 144 276 347 276s347 -45 347 -276v-212c0 -231 -145 -279 -348 -279s-346 48 -346 279v25h-118v-294h-200v750h200v-282zM730 164c104 0 141 15 141 127v169c0 111 -37 123 -141 123s-141 -16 -141 -123v-169c0 -109 37 -127 141 -127z" />
    <glyph glyph-name="afii10049" unicode="&#x42f;" horiz-adv-x="736" 
d="M471 0v264h-94l-132 -264h-229l163 288c-97 41 -134 104 -134 225c0 161 64 237 242 237h384v-750h-200zM471 428v158h-150c-57 0 -76 -16 -76 -80c0 -58 34 -78 91 -78h135z" />
    <glyph glyph-name="afii10065" unicode="&#x430;" horiz-adv-x="609" 
d="M388 78h-6c-13 -72 -91 -86 -151 -86c-120 0 -190 31 -190 165c0 126 66 165 190 165c59 0 125 -2 143 -59h8v83c0 49 -2 85 -77 85c-43 0 -71 -8 -71 -55h-172c0 154 113 159 242 159c176 0 250 -26 250 -207v-328h-172zM382 169c0 44 -38 46 -94 46
c-42 0 -75 -5 -75 -53c0 -54 42 -59 75 -59c72 0 94 11 94 66z" />
    <glyph glyph-name="afii10066" unicode="&#x431;" horiz-adv-x="609" 
d="M199 418c13 55 67 94 132 94c172 0 233 -48 233 -250c0 -211 -50 -270 -257 -270c-216 0 -262 74 -262 292v96c0 221 70 322 256 322c87 0 111 10 111 39h124c0 -119 -72 -159 -212 -159c-90 0 -131 -26 -131 -151v-13h6zM310 380c-76 0 -93 -25 -93 -118
c0 -114 8 -138 90 -138c81 0 85 26 85 138c0 95 -9 118 -82 118z" />
    <glyph glyph-name="afii10067" unicode="&#x432;" horiz-adv-x="580" 
d="M217 218v-107h92c46 0 64 11 64 53c0 44 -18 54 -64 54h-92zM55 0v525h284c113 0 181 -29 181 -137c0 -65 -30 -94 -85 -108v-4c64 -10 105 -51 105 -124c0 -120 -56 -152 -190 -152h-295zM217 414v-91h86c41 0 55 7 55 45c0 33 -14 46 -53 46h-88z" />
    <glyph glyph-name="afii10068" unicode="&#x433;" horiz-adv-x="457" 
d="M55 525h382v-126h-210v-399h-172v525z" />
    <glyph glyph-name="afii10069" unicode="&#x434;" horiz-adv-x="659" 
d="M134 525h456v-405h49v-256h-154v136h-311v-136h-154v256h51c43 58 63 123 63 234v171zM418 120v285h-122v-56c0 -122 -14 -168 -53 -229h175z" />
    <glyph glyph-name="afii10070" unicode="&#x435;" horiz-adv-x="583" 
d="M207 328h169c0 78 -29 87 -87 87c-61 0 -82 -18 -82 -87zM548 233h-341c0 -92 14 -121 85 -121c53 0 84 1 84 56h172c0 -162 -111 -176 -256 -176c-207 0 -257 74 -257 270c0 202 46 273 257 273c197 0 256 -59 256 -273v-29z" />
    <glyph glyph-name="afii10072" unicode="&#x436;" horiz-adv-x="836" 
d="M496 328h30l98 197h173l-141 -252l173 -273h-185l-118 213h-30v-213h-160v213h-30l-118 -213h-185l173 273l-141 252h173l98 -197h30v197h160v-197z" />
    <glyph glyph-name="afii10073" unicode="&#x437;" horiz-adv-x="573" 
d="M201 368h-162v26c0 115 107 141 239 141c167 0 240 -33 240 -150c0 -62 -30 -93 -85 -105v-4c70 -9 105 -51 105 -124c0 -133 -80 -160 -251 -160c-178 0 -255 23 -255 171h172c0 -50 16 -60 82 -60c70 0 85 15 85 57c0 46 -15 58 -90 58h-56v105h59c55 0 72 10 72 49
c0 38 -19 52 -78 52c-58 0 -77 -13 -77 -56z" />
    <glyph glyph-name="afii10074" unicode="&#x438;" horiz-adv-x="607" 
d="M55 525h154v-322h8l140 322h195v-525h-154v324h-5l-141 -324h-197v525z" />
    <glyph glyph-name="afii10075" unicode="&#x439;" horiz-adv-x="607" 
d="M55 525h154v-322h8l135 322h200v-525h-154v324h-5l-141 -324h-197v525zM360 712h74c0 -106 -47 -133 -148 -133c-91 0 -142 29 -142 133h74c0 -52 23 -59 70 -59s72 7 72 59z" />
    <glyph glyph-name="afii10076" unicode="&#x43a;" horiz-adv-x="592" 
d="M227 525v-197h30l104 197h189l-148 -252l182 -273h-201l-126 213h-30v-213h-172v525h172z" />
    <glyph glyph-name="afii10077" unicode="&#x43b;" horiz-adv-x="641" 
d="M128 525h458v-525h-172v399h-124v-169c0 -185 -83 -238 -196 -238c-30 0 -48 1 -74 4v124c8 -1 21 -2 35 -2c62 0 73 50 73 115v292z" />
    <glyph glyph-name="afii10078" unicode="&#x43c;" horiz-adv-x="782" 
d="M323 0l-108 390h-5v-390h-154v525h251l80 -322h8l80 322h251v-525h-154v390h-5l-108 -390h-136z" />
    <glyph glyph-name="afii10079" unicode="&#x43d;" horiz-adv-x="615" 
d="M227 525v-177h161v177h172v-525h-172v222h-161v-222h-172v525h172z" />
    <glyph glyph-name="afii10080" unicode="&#x43e;" horiz-adv-x="595" 
d="M297 535c220 0 263 -51 263 -273c0 -216 -45 -270 -263 -270c-215 0 -262 60 -262 270c0 215 43 273 262 273zM388 262c0 102 -13 141 -92 141c-76 0 -89 -39 -89 -140c0 -120 12 -139 89 -139c79 0 92 19 92 138z" />
    <glyph glyph-name="afii10081" unicode="&#x43f;" horiz-adv-x="615" 
d="M55 525h505v-525h-172v399h-161v-399h-172v525z" />
    <glyph glyph-name="afii10082" unicode="&#x440;" horiz-adv-x="625" 
d="M408 262c0 102 -13 141 -92 141c-76 0 -89 -39 -89 -140c0 -120 12 -139 89 -139c79 0 92 19 92 138zM227 79v-306h-172v752h172l-4 -83h8c20 71 75 93 150 93c127 0 199 -58 199 -197v-120c0 -160 -55 -226 -199 -226c-63 0 -118 15 -146 87h-8z" />
    <glyph glyph-name="afii10083" unicode="&#x441;" horiz-adv-x="570" 
d="M540 332h-172c0 60 -16 71 -82 71c-61 0 -79 -21 -79 -141c0 -123 14 -138 79 -138c78 0 82 19 82 84h172c0 -187 -77 -216 -254 -216c-203 0 -251 63 -251 270c0 178 36 273 251 273c151 0 254 -21 254 -203z" />
    <glyph glyph-name="afii10084" unicode="&#x442;" horiz-adv-x="458" 
d="M453 525v-126h-138v-399h-172v399h-138v126h448z" />
    <glyph glyph-name="afii10085" unicode="&#x443;" horiz-adv-x="553" 
d="M183 525l104 -427h2l85 427h176l-132 -571c-30 -131 -80 -187 -226 -187c-20 0 -39 2 -59 3v121c10 -1 20 -4 30 -4c72 0 87 51 90 113h-94l-156 525h180z" />
    <glyph glyph-name="afii10086" unicode="&#x444;" horiz-adv-x="900" 
d="M531 262c0 -88 5 -138 73 -138c60 0 79 19 79 138c0 111 -11 141 -79 141c-62 0 -73 -30 -73 -141zM531 -227h-162v306h-8c-20 -53 -69 -87 -128 -87c-136 0 -188 67 -188 227v120c0 135 63 196 188 196c71 0 113 -39 132 -93h4v308h162v-308l4 -1c19 54 62 94 133 94
c125 0 187 -59 187 -195v-120c0 -161 -52 -228 -188 -228c-59 0 -107 34 -127 87h-9v-306zM369 262c0 111 -12 141 -74 141c-68 0 -78 -30 -78 -141c0 -119 19 -138 79 -138c68 0 73 50 73 138z" />
    <glyph glyph-name="afii10087" unicode="&#x445;" horiz-adv-x="563" 
d="M546 525l-138 -247l152 -278h-202l-75 173l-73 -173h-207l156 278l-135 247h199l60 -145l63 145h200z" />
    <glyph glyph-name="afii10088" unicode="&#x446;" horiz-adv-x="628" 
d="M227 126h161v399h172v-399h48v-262h-154v136h-399v525h172v-399z" />
    <glyph glyph-name="afii10089" unicode="&#x447;" horiz-adv-x="597" 
d="M45 525h172v-131c0 -54 17 -71 76 -71c58 0 77 17 77 71v131h172v-525h-172v270h-6c-17 -56 -45 -79 -141 -79c-123 0 -178 49 -178 172v162z" />
    <glyph glyph-name="afii10090" unicode="&#x448;" horiz-adv-x="872" 
d="M655 126v399h162v-525h-762v525h162v-399h138v399h162v-399h138z" />
    <glyph glyph-name="afii10091" unicode="&#x449;" horiz-adv-x="885" 
d="M655 126v399h162v-399h48v-262h-154v136h-656v525h162v-399h138v399h162v-399h138z" />
    <glyph glyph-name="afii10092" unicode="&#x44a;" horiz-adv-x="664" 
d="M306 227v-107h88c46 0 63 16 63 53c0 40 -17 54 -63 54h-88zM0 525h306v-178h128c128 0 190 -50 190 -174c0 -127 -59 -173 -190 -173h-300v399h-134v126z" />
    <glyph glyph-name="afii10093" unicode="&#x44b;" horiz-adv-x="848" 
d="M227 227v-107h88c46 0 63 16 63 53c0 40 -17 54 -63 54h-88zM227 525v-178h128c128 0 190 -50 190 -174c0 -127 -59 -173 -190 -173h-300v525h172zM793 525v-525h-172v525h172z" />
    <glyph glyph-name="afii10094" unicode="&#x44c;" horiz-adv-x="585" 
d="M227 227v-107h88c46 0 63 16 63 53c0 40 -17 54 -63 54h-88zM227 525v-178h128c128 0 190 -50 190 -174c0 -127 -59 -173 -190 -173h-300v525h172z" />
    <glyph glyph-name="afii10095" unicode="&#x44d;" horiz-adv-x="588" 
d="M207 341h-172c0 169 104 194 255 194c215 0 253 -94 253 -272c0 -207 -50 -271 -253 -271c-167 0 -255 27 -255 203h172c0 -62 8 -83 83 -83c57 0 81 18 81 106h-113v105h113c0 74 -25 92 -81 92c-62 0 -83 -13 -83 -74z" />
    <glyph glyph-name="afii10096" unicode="&#x44e;" horiz-adv-x="880" 
d="M227 334h83c10 156 70 201 262 201c220 0 263 -51 263 -273c0 -216 -45 -270 -263 -270c-195 0 -253 50 -262 216h-83v-208h-172v525h172v-191zM663 262c0 102 -13 141 -92 141c-76 0 -89 -39 -89 -140c0 -120 12 -139 89 -139c79 0 92 19 92 138z" />
    <glyph glyph-name="afii10097" unicode="&#x44f;" horiz-adv-x="590" 
d="M363 298v107h-88c-46 0 -63 -16 -63 -53c0 -40 17 -54 63 -54h88zM363 0v178h-68l-82 -178h-187l103 194c-52 23 -84 66 -84 157c0 123 59 174 190 174h300v-525h-172z" />
    <glyph glyph-name="afii10071" unicode="&#x451;" horiz-adv-x="583" 
d="M207 328h169c0 78 -29 87 -87 87c-61 0 -82 -18 -82 -87zM548 233h-341c0 -92 14 -121 85 -121c53 0 84 1 84 56h172c0 -162 -111 -176 -256 -176c-207 0 -257 74 -257 270c0 202 46 273 257 273c197 0 256 -59 256 -273v-29zM239 712v-103h-109v103h109zM449 712v-103
h-109v103h109z" />
    <glyph glyph-name="afii10099" unicode="&#x452;" horiz-adv-x="615" 
d="M55 757h172v-70h161v-80h-161v-180h5c25 83 79 108 160 108c116 0 168 -57 168 -209v-204c0 -258 -61 -292 -248 -292v123c58 0 76 20 76 196v154c0 79 -15 100 -71 100c-77 0 -90 -50 -90 -114v-289h-172v607h-60v80h60v70z" />
    <glyph glyph-name="afii10100" unicode="&#x453;" horiz-adv-x="457" 
d="M55 525h382v-126h-210v-399h-172v525zM419 748l-147 -130h-79l89 130h137z" />
    <glyph glyph-name="afii10101" unicode="&#x454;" horiz-adv-x="566" 
d="M541 341h-171c0 61 -21 74 -83 74c-56 0 -80 -18 -80 -92h112v-105h-112c0 -88 23 -106 80 -106c75 0 83 14 83 76h171c0 -176 -87 -196 -254 -196c-203 0 -252 64 -252 271c0 178 37 272 252 272c151 0 254 -25 254 -194z" />
    <glyph glyph-name="afii10102" unicode="&#x455;" horiz-adv-x="584" 
d="M524 380h-162c-4 38 -23 44 -70 44c-83 0 -90 -15 -90 -46c0 -26 5 -49 90 -49c177 0 257 -26 257 -158c0 -154 -80 -179 -251 -179c-178 0 -263 15 -263 168h172c0 -50 27 -57 85 -57c70 0 90 7 90 48s-20 52 -90 52c-194 0 -257 52 -257 159c0 154 101 173 257 173
c116 0 232 -11 232 -130v-25z" />
    <glyph glyph-name="afii10103" unicode="&#x456;" horiz-adv-x="282" 
d="M227 525v-525h-172v525h172zM227 750v-132h-172v132h172z" />
    <glyph glyph-name="afii10104" unicode="&#x457;" horiz-adv-x="282" 
d="M227 525v-525h-172v525h172zM90 712v-103h-109v103h109zM300 712v-103h-109v103h109z" />
    <glyph glyph-name="afii10105" unicode="&#x458;" horiz-adv-x="282" 
d="M55 525h172v-596c0 -117 -57 -156 -170 -156c-17 0 -34 1 -51 6v117c43 0 49 25 49 51v578zM227 750v-132h-172v132h172z" />
    <glyph glyph-name="afii10106" unicode="&#x459;" horiz-adv-x="949" 
d="M128 525h458v-178h128c128 0 190 -50 190 -174c0 -127 -59 -173 -190 -173h-300v399h-124v-169c0 -185 -83 -238 -196 -238c-30 0 -48 1 -74 4v124c8 -1 21 -2 35 -2c62 0 73 50 73 115v292zM586 227v-107h88c46 0 63 16 63 53c0 40 -17 54 -63 54h-88z" />
    <glyph glyph-name="afii10107" unicode="&#x45a;" horiz-adv-x="923" 
d="M227 525v-177h161v177h172v-178h128c128 0 190 -50 190 -174c0 -127 -59 -173 -190 -173h-300v227h-161v-227h-172v525h172zM560 227v-107h88c46 0 63 16 63 53c0 40 -17 54 -63 54h-88z" />
    <glyph glyph-name="afii10108" unicode="&#x45b;" horiz-adv-x="615" 
d="M227 757v-70h161v-80h-161v-180h5c25 83 79 108 160 108c116 0 168 -59 168 -172v-363h-172v323c0 51 -15 80 -71 80c-77 0 -90 -50 -90 -114v-289h-172v607h-60v80h60v70h172z" />
    <glyph glyph-name="afii10109" unicode="&#x45c;" horiz-adv-x="592" 
d="M227 525v-197h30l104 197h189l-148 -252l182 -273h-201l-126 213h-30v-213h-172v525h172zM465 748l-147 -130h-79l89 130h137z" />
    <glyph glyph-name="afii10110" unicode="&#x45e;" horiz-adv-x="553" 
d="M183 525l104 -427h2l85 427h176l-132 -571c-30 -131 -80 -187 -226 -187c-20 0 -39 2 -59 3v121c10 -1 20 -4 30 -4c72 0 87 51 90 113h-94l-156 525h180zM361 712h74c0 -106 -47 -133 -148 -133c-91 0 -142 29 -142 133h74c0 -52 23 -59 70 -59s72 7 72 59z" />
    <glyph glyph-name="afii10193" unicode="&#x45f;" horiz-adv-x="615" 
d="M227 126h161v399h172v-525h-202v-136h-101v136h-202v525h172v-399z" />
    <glyph glyph-name="afii10050" unicode="&#x490;" horiz-adv-x="632" 
d="M65 750h382v145h150v-309h-332v-586h-200v750z" />
    <glyph glyph-name="afii10098" unicode="&#x491;" horiz-adv-x="457" 
d="M55 525h282v90h100v-216h-210v-399h-172v525z" />
    <glyph glyph-name="endash" unicode="&#x2013;" horiz-adv-x="500" 
d="M0 334h500v-115h-500v115z" />
    <glyph glyph-name="emdash" unicode="&#x2014;" horiz-adv-x="1000" 
d="M0 334h1000v-115h-1000v115z" />
    <glyph glyph-name="quoteleft" unicode="&#x2018;" horiz-adv-x="264" 
d="M211 450h-162v164c0 103 35 142 172 142v-74c-58 0 -72 -18 -72 -68h62v-164z" />
    <glyph glyph-name="quoteright" unicode="&#x2019;" horiz-adv-x="264" 
d="M56 750h162v-164c0 -103 -35 -142 -172 -142v74c58 0 72 18 72 68h-62v164z" />
    <glyph glyph-name="quotesinglbase" unicode="&#x201a;" horiz-adv-x="360" 
d="M95 164h162v-164c0 -103 -35 -142 -172 -142v74c58 0 72 18 72 68h-62v164z" />
    <glyph glyph-name="quotedblleft" unicode="&#x201c;" horiz-adv-x="489" 
d="M436 450h-162v164c0 103 35 142 172 142v-74c-58 0 -72 -18 -72 -68h62v-164zM211 450h-162v164c0 103 35 142 172 142v-74c-58 0 -72 -18 -72 -68h62v-164z" />
    <glyph glyph-name="quotedblright" unicode="&#x201d;" horiz-adv-x="489" 
d="M56 750h162v-164c0 -103 -35 -142 -172 -142v74c58 0 72 18 72 68h-62v164zM281 750h162v-164c0 -103 -35 -142 -172 -142v74c58 0 72 18 72 68h-62v164z" />
    <glyph glyph-name="quotedblbase" unicode="&#x201e;" horiz-adv-x="489" 
d="M54 164h162v-164c0 -103 -35 -142 -172 -142v74c58 0 72 18 72 68h-62v164zM279 164h162v-164c0 -103 -35 -142 -172 -142v74c58 0 72 18 72 68h-62v164z" />
    <glyph glyph-name="dagger" unicode="&#x2020;" 
d="M446 750v-219h182v-132h-182v-626h-172v626h-182v132h182v219h172z" />
    <glyph glyph-name="daggerdbl" unicode="&#x2021;" 
d="M702 501h-196c0 69 -14 89 -81 89c-71 0 -89 -19 -89 -90v-79h190v-145h-190c0 -65 -4 -90 -47 -111v-5h413v-160h-632v160c63 0 66 42 66 116h-89v145h89v108c0 163 58 228 290 228c226 0 276 -53 276 -221v-35z" />
    <glyph glyph-name="bullet" unicode="&#x2022;" horiz-adv-x="600" 
d="M490 375c0 -103 -84 -187 -188 -187c-103 0 -187 82 -187 187c0 102 82 188 187 188c104 0 188 -84 188 -188z" />
    <glyph glyph-name="ellipsis" unicode="&#x2026;" horiz-adv-x="1000" 
d="M247 164v-164h-162v164h162zM581 164v-164h-162v164h162zM915 164v-164h-162v164h162z" />
    <glyph glyph-name="perthousand" unicode="&#x2030;" horiz-adv-x="1290" 
d="M1101 375c117 0 166 -16 166 -135v-110c0 -120 -49 -136 -165 -136c-117 0 -160 16 -160 135v110c0 121 43 136 159 136zM1101 288c-49 0 -59 -1 -59 -60v-83c0 -63 10 -64 59 -64c50 0 66 1 66 64v83c0 59 -12 60 -66 60zM742 750l-443 -750h-120l443 750h120zM718 375
c117 0 166 -16 166 -135v-110c0 -120 -49 -136 -165 -136c-117 0 -160 16 -160 135v110c0 121 43 136 159 136zM718 288c-49 0 -59 -1 -59 -60v-83c0 -63 10 -64 59 -64c50 0 66 1 66 64v83c0 59 -12 60 -66 60zM182 756c117 0 166 -16 166 -135v-110
c0 -120 -49 -136 -165 -136c-117 0 -160 16 -160 135v110c0 121 43 136 159 136zM182 669c-49 0 -59 -1 -59 -60v-83c0 -63 10 -64 59 -64c50 0 66 1 66 64v83c0 59 -12 60 -66 60z" />
    <glyph glyph-name="guilsinglleft" unicode="&#x2039;" horiz-adv-x="331" 
d="M172 515l113 -61l-96 -182l96 -169l-107 -66l-134 235z" />
    <glyph glyph-name="guilsinglright" unicode="&#x203a;" horiz-adv-x="330" 
d="M152 37l-113 61l96 182l-96 169l107 66l134 -235z" />
    <glyph glyph-name="Euro" unicode="&#x20ac;" horiz-adv-x="724" 
d="M661 708v-156c-28 27 -88 56 -180 56c-117 0 -170 -52 -189 -118h322l-39 -94h-296c0 -6 -1 -16 -1 -25c0 -12 1 -25 2 -32h272l-39 -95h-216c19 -63 76 -104 185 -104c79 0 148 27 179 56v-159c-26 -19 -92 -46 -197 -46c-205 0 -315 88 -349 253h-97l39 95h48
c0 8 -1 17 -1 30c0 11 1 19 1 27h-87l39 94h57c34 145 124 268 350 268c98 0 169 -29 197 -50z" />
    <glyph glyph-name="afii61352" unicode="&#x2116;" horiz-adv-x="1199" 
d="M802 127h314v-77h-314v77zM959 505c139 0 157 -38 157 -163s-18 -164 -157 -164s-157 39 -157 164s18 163 157 163zM960 428h-1c-42 0 -53 -11 -53 -86s11 -87 53 -87s53 12 53 87s-10 86 -52 86zM63 750h310l178 -575h6l-19 575h200v-750h-311l-178 575h-6l20 -575h-200
v750z" />
    <glyph glyph-name="trademark" unicode="&#x2122;" horiz-adv-x="897" 
d="M405 750h147l91 -239l91 239h147v-404h-93v321h-3l-116 -321h-52l-116 321h-3v-321h-93v404zM13 750h348v-83h-123v-321h-102v321h-123v83z" />
    <glyph glyph-name="hyphenminus" horiz-adv-x="600" 
d="M50 219v115h500v-115h-500z" />
    </font>
</defs>
</svg>
