<svg id="_1_шапка" data-name="1 шапка" xmlns="http://www.w3.org/2000/svg" width="189" height="159" viewBox="0 0 63 53">
  <metadata><?xpacket begin="﻿" id="W5M0MpCehiHzreSzNTczkc9d"?>
<x:xmpmeta xmlns:x="adobe:ns:meta/" x:xmptk="Adobe XMP Core 5.6-c138 79.159824, 2016/09/14-01:09:01        ">
   <rdf:RDF xmlns:rdf="http://www.w3.org/1999/02/22-rdf-syntax-ns#">
      <rdf:Description rdf:about=""/>
   </rdf:RDF>
</x:xmpmeta>
                                                                                                    
                                                                                                    
                                                                                                    
                                                                                                    
                                                                                                    
                                                                                                    
                                                                                                    
                                                                                                    
                                                                                                    
                                                                                                    
                                                                                                    
                                                                                                    
                                                                                                    
                                                                                                    
                                                                                                    
                                                                                                    
                                                                                                    
                                                                                                    
                                                                                                    
                                                                                                    
                           
<?xpacket end="w"?></metadata>
<defs>
    <style>
      .cls-1, .cls-2 {
        fill-rule: evenodd;
      }

      .cls-2 {
        fill: none;
        stroke: #000;
        stroke-width: 1.82px;
      }
    </style>
  </defs>
  <g id="тел">
    <path id="икон" class="cls-1" d="M39.766,5.006H23.012A1.965,1.965,0,0,0,21,6.909V41.09a1.964,1.964,0,0,0,2.016,1.9H39.766a1.964,1.964,0,0,0,2.016-1.9V6.909A1.964,1.964,0,0,0,39.766,5.006ZM22.374,38.215H40.406v2.873a0.6,0.6,0,0,1-.64.554H23.012a0.6,0.6,0,0,1-.638-0.554V38.215ZM40.406,10.657V36.864H22.374V10.657H40.406Zm-17.394-4.3H39.766a0.6,0.6,0,0,1,.64.553v2.4H22.374v-2.4A0.6,0.6,0,0,1,23.012,6.356ZM31.389,41a1.106,1.106,0,1,0-1.128-1.106A1.118,1.118,0,0,0,31.389,41Z"/>
    <path id="_1" data-name="1" class="cls-2" d="M47.389,17.435s7.98,5.872,0,13.818"/>
    <path id="_2" data-name="2" class="cls-2" d="M48.915,12.6s13.7,9.689,0,22.8"/>
  </g>
</svg>
